G04 #@! TF.FileFunction,Copper,L2,Bot,Signal*
%FSLAX46Y46*%
G04 Gerber Fmt 4.6, Leading zero omitted, Abs format (unit mm)*
G04 Created by KiCad (PCBNEW 4.0.2+e4-6225~38~ubuntu16.04.1-stable) date Thu 23 Jun 2016 09:21:40 PM CEST*
%MOMM*%
G01*
G04 APERTURE LIST*
%ADD10C,0.100000*%
%ADD11C,3.200000*%
%ADD12R,1.727200X2.032000*%
%ADD13O,1.727200X2.032000*%
%ADD14C,1.699260*%
%ADD15R,1.699260X1.699260*%
%ADD16R,2.032000X1.727200*%
%ADD17O,2.032000X1.727200*%
%ADD18R,1.727200X1.727200*%
%ADD19O,1.727200X1.727200*%
%ADD20C,0.914400*%
%ADD21C,0.508000*%
%ADD22C,0.254000*%
G04 APERTURE END LIST*
D10*
D11*
X169545000Y-42545000D03*
D12*
X186055000Y-48260000D03*
D13*
X183515000Y-48260000D03*
X180975000Y-48260000D03*
X178435000Y-48260000D03*
X175895000Y-48260000D03*
X173355000Y-48260000D03*
X170815000Y-48260000D03*
X168275000Y-48260000D03*
X165735000Y-48260000D03*
X163195000Y-48260000D03*
X160655000Y-48260000D03*
X158115000Y-48260000D03*
X155575000Y-48260000D03*
X153035000Y-48260000D03*
D14*
X69850000Y-53340000D03*
D15*
X69850000Y-63500000D03*
D14*
X72390000Y-53340000D03*
D15*
X72390000Y-63500000D03*
D14*
X74930000Y-53340000D03*
D15*
X74930000Y-63500000D03*
D14*
X77470000Y-53340000D03*
D15*
X77470000Y-63500000D03*
D14*
X80010000Y-53340000D03*
D15*
X80010000Y-63500000D03*
D14*
X82550000Y-53340000D03*
D15*
X82550000Y-63500000D03*
D14*
X85090000Y-53340000D03*
D15*
X85090000Y-63500000D03*
D14*
X87630000Y-53340000D03*
D15*
X87630000Y-63500000D03*
D14*
X90170000Y-53340000D03*
D15*
X90170000Y-63500000D03*
D14*
X92710000Y-53340000D03*
D15*
X92710000Y-63500000D03*
D14*
X95250000Y-53340000D03*
D15*
X95250000Y-63500000D03*
D14*
X97790000Y-53340000D03*
D15*
X97790000Y-63500000D03*
D14*
X100330000Y-53340000D03*
D15*
X100330000Y-63500000D03*
D14*
X102870000Y-53340000D03*
D15*
X102870000Y-63500000D03*
D14*
X105410000Y-53340000D03*
D15*
X105410000Y-63500000D03*
D14*
X107950000Y-53340000D03*
D15*
X107950000Y-63500000D03*
D14*
X110490000Y-53340000D03*
D15*
X110490000Y-63500000D03*
D14*
X113030000Y-53340000D03*
D15*
X113030000Y-63500000D03*
D14*
X115570000Y-53340000D03*
D15*
X115570000Y-63500000D03*
D14*
X118110000Y-53340000D03*
D15*
X118110000Y-63500000D03*
D14*
X120650000Y-53340000D03*
D15*
X120650000Y-63500000D03*
D14*
X123190000Y-53340000D03*
D15*
X123190000Y-63500000D03*
D14*
X125730000Y-53340000D03*
D15*
X125730000Y-63500000D03*
D14*
X128270000Y-53340000D03*
D15*
X128270000Y-63500000D03*
D14*
X130810000Y-53340000D03*
D15*
X130810000Y-63500000D03*
D14*
X133350000Y-53340000D03*
D15*
X133350000Y-63500000D03*
D14*
X135890000Y-53340000D03*
D15*
X135890000Y-63500000D03*
D14*
X138430000Y-53340000D03*
D15*
X138430000Y-63500000D03*
D14*
X140970000Y-53340000D03*
D15*
X140970000Y-63500000D03*
D14*
X143510000Y-53340000D03*
D15*
X143510000Y-63500000D03*
D12*
X186055000Y-63500000D03*
D13*
X183515000Y-63500000D03*
X180975000Y-63500000D03*
X178435000Y-63500000D03*
X175895000Y-63500000D03*
X173355000Y-63500000D03*
X170815000Y-63500000D03*
X168275000Y-63500000D03*
X165735000Y-63500000D03*
X163195000Y-63500000D03*
X160655000Y-63500000D03*
X158115000Y-63500000D03*
X155575000Y-63500000D03*
X153035000Y-63500000D03*
D16*
X147320000Y-46355000D03*
D17*
X147320000Y-48895000D03*
X147320000Y-51435000D03*
X147320000Y-53975000D03*
X147320000Y-56515000D03*
D18*
X69850000Y-49530000D03*
D19*
X69850000Y-46990000D03*
X72390000Y-49530000D03*
X72390000Y-46990000D03*
X74930000Y-49530000D03*
X74930000Y-46990000D03*
X77470000Y-49530000D03*
X77470000Y-46990000D03*
X80010000Y-49530000D03*
X80010000Y-46990000D03*
X82550000Y-49530000D03*
X82550000Y-46990000D03*
X85090000Y-49530000D03*
X85090000Y-46990000D03*
X87630000Y-49530000D03*
X87630000Y-46990000D03*
X90170000Y-49530000D03*
X90170000Y-46990000D03*
X92710000Y-49530000D03*
X92710000Y-46990000D03*
X95250000Y-49530000D03*
X95250000Y-46990000D03*
X97790000Y-49530000D03*
X97790000Y-46990000D03*
X100330000Y-49530000D03*
X100330000Y-46990000D03*
X102870000Y-49530000D03*
X102870000Y-46990000D03*
X105410000Y-49530000D03*
X105410000Y-46990000D03*
X107950000Y-49530000D03*
X107950000Y-46990000D03*
X110490000Y-49530000D03*
X110490000Y-46990000D03*
X113030000Y-49530000D03*
X113030000Y-46990000D03*
X115570000Y-49530000D03*
X115570000Y-46990000D03*
X118110000Y-49530000D03*
X118110000Y-46990000D03*
X120650000Y-49530000D03*
X120650000Y-46990000D03*
X123190000Y-49530000D03*
X123190000Y-46990000D03*
X125730000Y-49530000D03*
X125730000Y-46990000D03*
X128270000Y-49530000D03*
X128270000Y-46990000D03*
X130810000Y-49530000D03*
X130810000Y-46990000D03*
X133350000Y-49530000D03*
X133350000Y-46990000D03*
X135890000Y-49530000D03*
X135890000Y-46990000D03*
X138430000Y-49530000D03*
X138430000Y-46990000D03*
X140970000Y-49530000D03*
X140970000Y-46990000D03*
X143510000Y-49530000D03*
X143510000Y-46990000D03*
D11*
X181610000Y-42545000D03*
D20*
X133350000Y-44450000D03*
X120650000Y-44450000D03*
X107950000Y-44450000D03*
X95250000Y-44450000D03*
X82550000Y-44450000D03*
X69850000Y-44450000D03*
X135890000Y-43180000D03*
X123190000Y-43180000D03*
X110490000Y-43180000D03*
X97790000Y-43180000D03*
X85090000Y-43180000D03*
X72390000Y-43180000D03*
X138430000Y-41910000D03*
X125730000Y-41910000D03*
X113030000Y-41910000D03*
X100330000Y-41910000D03*
X87630000Y-41910000D03*
X74930000Y-41910000D03*
X140970000Y-40640000D03*
X128270000Y-40640000D03*
X115570000Y-40640000D03*
X102870000Y-40640000D03*
X90170000Y-40640000D03*
X77470000Y-40640000D03*
X143510000Y-39370000D03*
X130810000Y-39370000D03*
X118110000Y-39370000D03*
X105410000Y-39370000D03*
X92710000Y-39370000D03*
X80010000Y-39370000D03*
D21*
X82550000Y-44450000D02*
X154305000Y-44450000D01*
X154305000Y-44450000D02*
X155575000Y-45720000D01*
X155575000Y-45720000D02*
X155575000Y-48260000D01*
X69850000Y-44450000D02*
X82550000Y-44450000D01*
X153035000Y-43180000D02*
X156210000Y-43180000D01*
X72390000Y-43180000D02*
X110490000Y-43180000D01*
X110490000Y-43180000D02*
X153035000Y-43180000D01*
X156210000Y-43180000D02*
X158115000Y-45085000D01*
X158115000Y-45085000D02*
X158115000Y-48260000D01*
X125730000Y-41910000D02*
X157480000Y-41910000D01*
X157480000Y-41910000D02*
X160655000Y-45085000D01*
X160655000Y-45085000D02*
X160655000Y-46736000D01*
X160655000Y-46736000D02*
X160655000Y-48260000D01*
X125730000Y-41910000D02*
X74930000Y-41910000D01*
X140970000Y-40640000D02*
X158750000Y-40640000D01*
X158750000Y-40640000D02*
X163195000Y-45085000D01*
X163195000Y-45085000D02*
X163195000Y-46736000D01*
X163195000Y-46736000D02*
X163195000Y-48260000D01*
X140970000Y-40640000D02*
X77470000Y-40640000D01*
X156845000Y-39370000D02*
X160020000Y-39370000D01*
X156845000Y-39370000D02*
X80010000Y-39370000D01*
X165735000Y-45085000D02*
X160020000Y-39370000D01*
X165735000Y-46736000D02*
X165735000Y-45085000D01*
X165735000Y-48260000D02*
X165735000Y-46736000D01*
D22*
G36*
X187250000Y-46693952D02*
X187044909Y-46609000D01*
X186340750Y-46609000D01*
X186182000Y-46767750D01*
X186182000Y-48133000D01*
X186202000Y-48133000D01*
X186202000Y-48387000D01*
X186182000Y-48387000D01*
X186182000Y-49752250D01*
X186340750Y-49911000D01*
X187044909Y-49911000D01*
X187250000Y-49826048D01*
X187250000Y-61941896D01*
X187170490Y-61887569D01*
X186918600Y-61836560D01*
X185191400Y-61836560D01*
X184956083Y-61880838D01*
X184739959Y-62019910D01*
X184594969Y-62232110D01*
X184586600Y-62273439D01*
X184574670Y-62255585D01*
X184088489Y-61930729D01*
X183515000Y-61816655D01*
X182941511Y-61930729D01*
X182455330Y-62255585D01*
X182245000Y-62570366D01*
X182034670Y-62255585D01*
X181548489Y-61930729D01*
X180975000Y-61816655D01*
X180401511Y-61930729D01*
X179915330Y-62255585D01*
X179705000Y-62570366D01*
X179494670Y-62255585D01*
X179008489Y-61930729D01*
X178435000Y-61816655D01*
X177861511Y-61930729D01*
X177375330Y-62255585D01*
X177165000Y-62570366D01*
X176954670Y-62255585D01*
X176468489Y-61930729D01*
X175895000Y-61816655D01*
X175321511Y-61930729D01*
X174835330Y-62255585D01*
X174625000Y-62570366D01*
X174414670Y-62255585D01*
X173928489Y-61930729D01*
X173355000Y-61816655D01*
X172781511Y-61930729D01*
X172295330Y-62255585D01*
X172085000Y-62570366D01*
X171874670Y-62255585D01*
X171388489Y-61930729D01*
X170815000Y-61816655D01*
X170241511Y-61930729D01*
X169755330Y-62255585D01*
X169545000Y-62570366D01*
X169334670Y-62255585D01*
X168848489Y-61930729D01*
X168275000Y-61816655D01*
X167701511Y-61930729D01*
X167215330Y-62255585D01*
X167005000Y-62570366D01*
X166794670Y-62255585D01*
X166308489Y-61930729D01*
X165735000Y-61816655D01*
X165161511Y-61930729D01*
X164675330Y-62255585D01*
X164465000Y-62570366D01*
X164254670Y-62255585D01*
X163768489Y-61930729D01*
X163195000Y-61816655D01*
X162621511Y-61930729D01*
X162135330Y-62255585D01*
X161925000Y-62570366D01*
X161714670Y-62255585D01*
X161228489Y-61930729D01*
X160655000Y-61816655D01*
X160081511Y-61930729D01*
X159595330Y-62255585D01*
X159385000Y-62570366D01*
X159174670Y-62255585D01*
X158688489Y-61930729D01*
X158115000Y-61816655D01*
X157541511Y-61930729D01*
X157055330Y-62255585D01*
X156845000Y-62570366D01*
X156634670Y-62255585D01*
X156148489Y-61930729D01*
X155575000Y-61816655D01*
X155001511Y-61930729D01*
X154515330Y-62255585D01*
X154305000Y-62570366D01*
X154094670Y-62255585D01*
X153608489Y-61930729D01*
X153035000Y-61816655D01*
X152461511Y-61930729D01*
X151975330Y-62255585D01*
X151650474Y-62741766D01*
X151536400Y-63315255D01*
X151536400Y-63684745D01*
X151650474Y-64258234D01*
X151942312Y-64695000D01*
X144892189Y-64695000D01*
X144956061Y-64601520D01*
X145007070Y-64349630D01*
X145007070Y-62650370D01*
X144962792Y-62415053D01*
X144823720Y-62198929D01*
X144611520Y-62053939D01*
X144359630Y-62002930D01*
X142660370Y-62002930D01*
X142425053Y-62047208D01*
X142237912Y-62167630D01*
X142071520Y-62053939D01*
X141819630Y-62002930D01*
X140120370Y-62002930D01*
X139885053Y-62047208D01*
X139697912Y-62167630D01*
X139531520Y-62053939D01*
X139279630Y-62002930D01*
X137580370Y-62002930D01*
X137345053Y-62047208D01*
X137157912Y-62167630D01*
X136991520Y-62053939D01*
X136739630Y-62002930D01*
X135040370Y-62002930D01*
X134805053Y-62047208D01*
X134617912Y-62167630D01*
X134451520Y-62053939D01*
X134199630Y-62002930D01*
X132500370Y-62002930D01*
X132265053Y-62047208D01*
X132077912Y-62167630D01*
X131911520Y-62053939D01*
X131659630Y-62002930D01*
X129960370Y-62002930D01*
X129725053Y-62047208D01*
X129537912Y-62167630D01*
X129371520Y-62053939D01*
X129119630Y-62002930D01*
X127420370Y-62002930D01*
X127185053Y-62047208D01*
X126997912Y-62167630D01*
X126831520Y-62053939D01*
X126579630Y-62002930D01*
X124880370Y-62002930D01*
X124645053Y-62047208D01*
X124457912Y-62167630D01*
X124291520Y-62053939D01*
X124039630Y-62002930D01*
X122340370Y-62002930D01*
X122105053Y-62047208D01*
X121917912Y-62167630D01*
X121751520Y-62053939D01*
X121499630Y-62002930D01*
X119800370Y-62002930D01*
X119565053Y-62047208D01*
X119377912Y-62167630D01*
X119211520Y-62053939D01*
X118959630Y-62002930D01*
X117260370Y-62002930D01*
X117025053Y-62047208D01*
X116837912Y-62167630D01*
X116671520Y-62053939D01*
X116419630Y-62002930D01*
X114720370Y-62002930D01*
X114485053Y-62047208D01*
X114297912Y-62167630D01*
X114131520Y-62053939D01*
X113879630Y-62002930D01*
X112180370Y-62002930D01*
X111945053Y-62047208D01*
X111757912Y-62167630D01*
X111591520Y-62053939D01*
X111339630Y-62002930D01*
X109640370Y-62002930D01*
X109405053Y-62047208D01*
X109217912Y-62167630D01*
X109051520Y-62053939D01*
X108799630Y-62002930D01*
X107100370Y-62002930D01*
X106865053Y-62047208D01*
X106677912Y-62167630D01*
X106511520Y-62053939D01*
X106259630Y-62002930D01*
X104560370Y-62002930D01*
X104325053Y-62047208D01*
X104137912Y-62167630D01*
X103971520Y-62053939D01*
X103719630Y-62002930D01*
X102020370Y-62002930D01*
X101785053Y-62047208D01*
X101597912Y-62167630D01*
X101431520Y-62053939D01*
X101179630Y-62002930D01*
X99480370Y-62002930D01*
X99245053Y-62047208D01*
X99057912Y-62167630D01*
X98891520Y-62053939D01*
X98639630Y-62002930D01*
X96940370Y-62002930D01*
X96705053Y-62047208D01*
X96517912Y-62167630D01*
X96351520Y-62053939D01*
X96099630Y-62002930D01*
X94400370Y-62002930D01*
X94165053Y-62047208D01*
X93977912Y-62167630D01*
X93811520Y-62053939D01*
X93559630Y-62002930D01*
X91860370Y-62002930D01*
X91625053Y-62047208D01*
X91437912Y-62167630D01*
X91271520Y-62053939D01*
X91019630Y-62002930D01*
X89320370Y-62002930D01*
X89085053Y-62047208D01*
X88897912Y-62167630D01*
X88731520Y-62053939D01*
X88479630Y-62002930D01*
X86780370Y-62002930D01*
X86545053Y-62047208D01*
X86357912Y-62167630D01*
X86191520Y-62053939D01*
X85939630Y-62002930D01*
X84240370Y-62002930D01*
X84005053Y-62047208D01*
X83817912Y-62167630D01*
X83651520Y-62053939D01*
X83399630Y-62002930D01*
X81700370Y-62002930D01*
X81465053Y-62047208D01*
X81277912Y-62167630D01*
X81111520Y-62053939D01*
X80859630Y-62002930D01*
X79160370Y-62002930D01*
X78925053Y-62047208D01*
X78737912Y-62167630D01*
X78571520Y-62053939D01*
X78319630Y-62002930D01*
X76620370Y-62002930D01*
X76385053Y-62047208D01*
X76197912Y-62167630D01*
X76031520Y-62053939D01*
X75779630Y-62002930D01*
X74080370Y-62002930D01*
X73845053Y-62047208D01*
X73657912Y-62167630D01*
X73491520Y-62053939D01*
X73239630Y-62002930D01*
X71540370Y-62002930D01*
X71305053Y-62047208D01*
X71117912Y-62167630D01*
X70951520Y-62053939D01*
X70699630Y-62002930D01*
X69000370Y-62002930D01*
X68765053Y-62047208D01*
X68655000Y-62118025D01*
X68655000Y-54244331D01*
X69007926Y-54597874D01*
X69553393Y-54824372D01*
X70144016Y-54824888D01*
X70689877Y-54599342D01*
X71107874Y-54182074D01*
X71119749Y-54153476D01*
X71130658Y-54179877D01*
X71547926Y-54597874D01*
X72093393Y-54824372D01*
X72684016Y-54824888D01*
X73229877Y-54599342D01*
X73647874Y-54182074D01*
X73659749Y-54153476D01*
X73670658Y-54179877D01*
X74087926Y-54597874D01*
X74633393Y-54824372D01*
X75224016Y-54824888D01*
X75769877Y-54599342D01*
X76187874Y-54182074D01*
X76199749Y-54153476D01*
X76210658Y-54179877D01*
X76627926Y-54597874D01*
X77173393Y-54824372D01*
X77764016Y-54824888D01*
X78309877Y-54599342D01*
X78727874Y-54182074D01*
X78739749Y-54153476D01*
X78750658Y-54179877D01*
X79167926Y-54597874D01*
X79713393Y-54824372D01*
X80304016Y-54824888D01*
X80849877Y-54599342D01*
X81267874Y-54182074D01*
X81279749Y-54153476D01*
X81290658Y-54179877D01*
X81707926Y-54597874D01*
X82253393Y-54824372D01*
X82844016Y-54824888D01*
X83389877Y-54599342D01*
X83807874Y-54182074D01*
X83819749Y-54153476D01*
X83830658Y-54179877D01*
X84247926Y-54597874D01*
X84793393Y-54824372D01*
X85384016Y-54824888D01*
X85929877Y-54599342D01*
X86347874Y-54182074D01*
X86359749Y-54153476D01*
X86370658Y-54179877D01*
X86787926Y-54597874D01*
X87333393Y-54824372D01*
X87924016Y-54824888D01*
X88469877Y-54599342D01*
X88887874Y-54182074D01*
X88899749Y-54153476D01*
X88910658Y-54179877D01*
X89327926Y-54597874D01*
X89873393Y-54824372D01*
X90464016Y-54824888D01*
X91009877Y-54599342D01*
X91427874Y-54182074D01*
X91439749Y-54153476D01*
X91450658Y-54179877D01*
X91867926Y-54597874D01*
X92413393Y-54824372D01*
X93004016Y-54824888D01*
X93549877Y-54599342D01*
X93967874Y-54182074D01*
X93979749Y-54153476D01*
X93990658Y-54179877D01*
X94407926Y-54597874D01*
X94953393Y-54824372D01*
X95544016Y-54824888D01*
X96089877Y-54599342D01*
X96507874Y-54182074D01*
X96519749Y-54153476D01*
X96530658Y-54179877D01*
X96947926Y-54597874D01*
X97493393Y-54824372D01*
X98084016Y-54824888D01*
X98629877Y-54599342D01*
X99047874Y-54182074D01*
X99059749Y-54153476D01*
X99070658Y-54179877D01*
X99487926Y-54597874D01*
X100033393Y-54824372D01*
X100624016Y-54824888D01*
X101169877Y-54599342D01*
X101587874Y-54182074D01*
X101599749Y-54153476D01*
X101610658Y-54179877D01*
X102027926Y-54597874D01*
X102573393Y-54824372D01*
X103164016Y-54824888D01*
X103709877Y-54599342D01*
X104127874Y-54182074D01*
X104139749Y-54153476D01*
X104150658Y-54179877D01*
X104567926Y-54597874D01*
X105113393Y-54824372D01*
X105704016Y-54824888D01*
X106249877Y-54599342D01*
X106667874Y-54182074D01*
X106679749Y-54153476D01*
X106690658Y-54179877D01*
X107107926Y-54597874D01*
X107653393Y-54824372D01*
X108244016Y-54824888D01*
X108789877Y-54599342D01*
X109207874Y-54182074D01*
X109219749Y-54153476D01*
X109230658Y-54179877D01*
X109647926Y-54597874D01*
X110193393Y-54824372D01*
X110784016Y-54824888D01*
X111329877Y-54599342D01*
X111747874Y-54182074D01*
X111759749Y-54153476D01*
X111770658Y-54179877D01*
X112187926Y-54597874D01*
X112733393Y-54824372D01*
X113324016Y-54824888D01*
X113869877Y-54599342D01*
X114287874Y-54182074D01*
X114299749Y-54153476D01*
X114310658Y-54179877D01*
X114727926Y-54597874D01*
X115273393Y-54824372D01*
X115864016Y-54824888D01*
X116409877Y-54599342D01*
X116827874Y-54182074D01*
X116839749Y-54153476D01*
X116850658Y-54179877D01*
X117267926Y-54597874D01*
X117813393Y-54824372D01*
X118404016Y-54824888D01*
X118949877Y-54599342D01*
X119367874Y-54182074D01*
X119379749Y-54153476D01*
X119390658Y-54179877D01*
X119807926Y-54597874D01*
X120353393Y-54824372D01*
X120944016Y-54824888D01*
X121489877Y-54599342D01*
X121907874Y-54182074D01*
X121919749Y-54153476D01*
X121930658Y-54179877D01*
X122347926Y-54597874D01*
X122893393Y-54824372D01*
X123484016Y-54824888D01*
X124029877Y-54599342D01*
X124447874Y-54182074D01*
X124459749Y-54153476D01*
X124470658Y-54179877D01*
X124887926Y-54597874D01*
X125433393Y-54824372D01*
X126024016Y-54824888D01*
X126569877Y-54599342D01*
X126987874Y-54182074D01*
X126999749Y-54153476D01*
X127010658Y-54179877D01*
X127427926Y-54597874D01*
X127973393Y-54824372D01*
X128564016Y-54824888D01*
X129109877Y-54599342D01*
X129527874Y-54182074D01*
X129539749Y-54153476D01*
X129550658Y-54179877D01*
X129967926Y-54597874D01*
X130513393Y-54824372D01*
X131104016Y-54824888D01*
X131649877Y-54599342D01*
X132067874Y-54182074D01*
X132079749Y-54153476D01*
X132090658Y-54179877D01*
X132507926Y-54597874D01*
X133053393Y-54824372D01*
X133644016Y-54824888D01*
X134189877Y-54599342D01*
X134607874Y-54182074D01*
X134619749Y-54153476D01*
X134630658Y-54179877D01*
X135047926Y-54597874D01*
X135593393Y-54824372D01*
X136184016Y-54824888D01*
X136729877Y-54599342D01*
X137147874Y-54182074D01*
X137159749Y-54153476D01*
X137170658Y-54179877D01*
X137587926Y-54597874D01*
X138133393Y-54824372D01*
X138724016Y-54824888D01*
X139269877Y-54599342D01*
X139687874Y-54182074D01*
X139699749Y-54153476D01*
X139710658Y-54179877D01*
X140127926Y-54597874D01*
X140673393Y-54824372D01*
X141264016Y-54824888D01*
X141809877Y-54599342D01*
X142227874Y-54182074D01*
X142239749Y-54153476D01*
X142250658Y-54179877D01*
X142667926Y-54597874D01*
X143213393Y-54824372D01*
X143804016Y-54824888D01*
X144349877Y-54599342D01*
X144767874Y-54182074D01*
X144994372Y-53636607D01*
X144994888Y-53045984D01*
X144769342Y-52500123D01*
X144352074Y-52082126D01*
X143806607Y-51855628D01*
X143215984Y-51855112D01*
X142670123Y-52080658D01*
X142252126Y-52497926D01*
X142240251Y-52526524D01*
X142229342Y-52500123D01*
X141812074Y-52082126D01*
X141266607Y-51855628D01*
X140675984Y-51855112D01*
X140130123Y-52080658D01*
X139712126Y-52497926D01*
X139700251Y-52526524D01*
X139689342Y-52500123D01*
X139272074Y-52082126D01*
X138726607Y-51855628D01*
X138135984Y-51855112D01*
X137590123Y-52080658D01*
X137172126Y-52497926D01*
X137160251Y-52526524D01*
X137149342Y-52500123D01*
X136732074Y-52082126D01*
X136186607Y-51855628D01*
X135595984Y-51855112D01*
X135050123Y-52080658D01*
X134632126Y-52497926D01*
X134620251Y-52526524D01*
X134609342Y-52500123D01*
X134192074Y-52082126D01*
X133646607Y-51855628D01*
X133055984Y-51855112D01*
X132510123Y-52080658D01*
X132092126Y-52497926D01*
X132080251Y-52526524D01*
X132069342Y-52500123D01*
X131652074Y-52082126D01*
X131106607Y-51855628D01*
X130515984Y-51855112D01*
X129970123Y-52080658D01*
X129552126Y-52497926D01*
X129540251Y-52526524D01*
X129529342Y-52500123D01*
X129112074Y-52082126D01*
X128566607Y-51855628D01*
X127975984Y-51855112D01*
X127430123Y-52080658D01*
X127012126Y-52497926D01*
X127000251Y-52526524D01*
X126989342Y-52500123D01*
X126572074Y-52082126D01*
X126026607Y-51855628D01*
X125435984Y-51855112D01*
X124890123Y-52080658D01*
X124472126Y-52497926D01*
X124460251Y-52526524D01*
X124449342Y-52500123D01*
X124032074Y-52082126D01*
X123486607Y-51855628D01*
X122895984Y-51855112D01*
X122350123Y-52080658D01*
X121932126Y-52497926D01*
X121920251Y-52526524D01*
X121909342Y-52500123D01*
X121492074Y-52082126D01*
X120946607Y-51855628D01*
X120355984Y-51855112D01*
X119810123Y-52080658D01*
X119392126Y-52497926D01*
X119380251Y-52526524D01*
X119369342Y-52500123D01*
X118952074Y-52082126D01*
X118406607Y-51855628D01*
X117815984Y-51855112D01*
X117270123Y-52080658D01*
X116852126Y-52497926D01*
X116840251Y-52526524D01*
X116829342Y-52500123D01*
X116412074Y-52082126D01*
X115866607Y-51855628D01*
X115275984Y-51855112D01*
X114730123Y-52080658D01*
X114312126Y-52497926D01*
X114300251Y-52526524D01*
X114289342Y-52500123D01*
X113872074Y-52082126D01*
X113326607Y-51855628D01*
X112735984Y-51855112D01*
X112190123Y-52080658D01*
X111772126Y-52497926D01*
X111760251Y-52526524D01*
X111749342Y-52500123D01*
X111332074Y-52082126D01*
X110786607Y-51855628D01*
X110195984Y-51855112D01*
X109650123Y-52080658D01*
X109232126Y-52497926D01*
X109220251Y-52526524D01*
X109209342Y-52500123D01*
X108792074Y-52082126D01*
X108246607Y-51855628D01*
X107655984Y-51855112D01*
X107110123Y-52080658D01*
X106692126Y-52497926D01*
X106680251Y-52526524D01*
X106669342Y-52500123D01*
X106252074Y-52082126D01*
X105706607Y-51855628D01*
X105115984Y-51855112D01*
X104570123Y-52080658D01*
X104152126Y-52497926D01*
X104140251Y-52526524D01*
X104129342Y-52500123D01*
X103712074Y-52082126D01*
X103166607Y-51855628D01*
X102575984Y-51855112D01*
X102030123Y-52080658D01*
X101612126Y-52497926D01*
X101600251Y-52526524D01*
X101589342Y-52500123D01*
X101172074Y-52082126D01*
X100626607Y-51855628D01*
X100035984Y-51855112D01*
X99490123Y-52080658D01*
X99072126Y-52497926D01*
X99060251Y-52526524D01*
X99049342Y-52500123D01*
X98632074Y-52082126D01*
X98086607Y-51855628D01*
X97495984Y-51855112D01*
X96950123Y-52080658D01*
X96532126Y-52497926D01*
X96520251Y-52526524D01*
X96509342Y-52500123D01*
X96092074Y-52082126D01*
X95546607Y-51855628D01*
X94955984Y-51855112D01*
X94410123Y-52080658D01*
X93992126Y-52497926D01*
X93980251Y-52526524D01*
X93969342Y-52500123D01*
X93552074Y-52082126D01*
X93006607Y-51855628D01*
X92415984Y-51855112D01*
X91870123Y-52080658D01*
X91452126Y-52497926D01*
X91440251Y-52526524D01*
X91429342Y-52500123D01*
X91012074Y-52082126D01*
X90466607Y-51855628D01*
X89875984Y-51855112D01*
X89330123Y-52080658D01*
X88912126Y-52497926D01*
X88900251Y-52526524D01*
X88889342Y-52500123D01*
X88472074Y-52082126D01*
X87926607Y-51855628D01*
X87335984Y-51855112D01*
X86790123Y-52080658D01*
X86372126Y-52497926D01*
X86360251Y-52526524D01*
X86349342Y-52500123D01*
X85932074Y-52082126D01*
X85386607Y-51855628D01*
X84795984Y-51855112D01*
X84250123Y-52080658D01*
X83832126Y-52497926D01*
X83820251Y-52526524D01*
X83809342Y-52500123D01*
X83392074Y-52082126D01*
X82846607Y-51855628D01*
X82255984Y-51855112D01*
X81710123Y-52080658D01*
X81292126Y-52497926D01*
X81280251Y-52526524D01*
X81269342Y-52500123D01*
X80852074Y-52082126D01*
X80306607Y-51855628D01*
X79715984Y-51855112D01*
X79170123Y-52080658D01*
X78752126Y-52497926D01*
X78740251Y-52526524D01*
X78729342Y-52500123D01*
X78312074Y-52082126D01*
X77766607Y-51855628D01*
X77175984Y-51855112D01*
X76630123Y-52080658D01*
X76212126Y-52497926D01*
X76200251Y-52526524D01*
X76189342Y-52500123D01*
X75772074Y-52082126D01*
X75226607Y-51855628D01*
X74635984Y-51855112D01*
X74090123Y-52080658D01*
X73672126Y-52497926D01*
X73660251Y-52526524D01*
X73649342Y-52500123D01*
X73232074Y-52082126D01*
X72686607Y-51855628D01*
X72095984Y-51855112D01*
X71550123Y-52080658D01*
X71132126Y-52497926D01*
X71120251Y-52526524D01*
X71109342Y-52500123D01*
X70692074Y-52082126D01*
X70146607Y-51855628D01*
X69555984Y-51855112D01*
X69010123Y-52080658D01*
X68655000Y-52435162D01*
X68655000Y-50935704D01*
X68734510Y-50990031D01*
X68986400Y-51041040D01*
X70713600Y-51041040D01*
X70948917Y-50996762D01*
X71165041Y-50857690D01*
X71310031Y-50645490D01*
X71318864Y-50601869D01*
X71330330Y-50619029D01*
X71816511Y-50943885D01*
X72390000Y-51057959D01*
X72963489Y-50943885D01*
X73449670Y-50619029D01*
X73660000Y-50304248D01*
X73870330Y-50619029D01*
X74356511Y-50943885D01*
X74930000Y-51057959D01*
X75503489Y-50943885D01*
X75989670Y-50619029D01*
X76200000Y-50304248D01*
X76410330Y-50619029D01*
X76896511Y-50943885D01*
X77470000Y-51057959D01*
X78043489Y-50943885D01*
X78529670Y-50619029D01*
X78740000Y-50304248D01*
X78950330Y-50619029D01*
X79436511Y-50943885D01*
X80010000Y-51057959D01*
X80583489Y-50943885D01*
X81069670Y-50619029D01*
X81280000Y-50304248D01*
X81490330Y-50619029D01*
X81976511Y-50943885D01*
X82550000Y-51057959D01*
X83123489Y-50943885D01*
X83609670Y-50619029D01*
X83820000Y-50304248D01*
X84030330Y-50619029D01*
X84516511Y-50943885D01*
X85090000Y-51057959D01*
X85663489Y-50943885D01*
X86149670Y-50619029D01*
X86360000Y-50304248D01*
X86570330Y-50619029D01*
X87056511Y-50943885D01*
X87630000Y-51057959D01*
X88203489Y-50943885D01*
X88689670Y-50619029D01*
X88900000Y-50304248D01*
X89110330Y-50619029D01*
X89596511Y-50943885D01*
X90170000Y-51057959D01*
X90743489Y-50943885D01*
X91229670Y-50619029D01*
X91440000Y-50304248D01*
X91650330Y-50619029D01*
X92136511Y-50943885D01*
X92710000Y-51057959D01*
X93283489Y-50943885D01*
X93769670Y-50619029D01*
X93980000Y-50304248D01*
X94190330Y-50619029D01*
X94676511Y-50943885D01*
X95250000Y-51057959D01*
X95823489Y-50943885D01*
X96309670Y-50619029D01*
X96520000Y-50304248D01*
X96730330Y-50619029D01*
X97216511Y-50943885D01*
X97790000Y-51057959D01*
X98363489Y-50943885D01*
X98849670Y-50619029D01*
X99060000Y-50304248D01*
X99270330Y-50619029D01*
X99756511Y-50943885D01*
X100330000Y-51057959D01*
X100903489Y-50943885D01*
X101389670Y-50619029D01*
X101600000Y-50304248D01*
X101810330Y-50619029D01*
X102296511Y-50943885D01*
X102870000Y-51057959D01*
X103443489Y-50943885D01*
X103929670Y-50619029D01*
X104140000Y-50304248D01*
X104350330Y-50619029D01*
X104836511Y-50943885D01*
X105410000Y-51057959D01*
X105983489Y-50943885D01*
X106469670Y-50619029D01*
X106680000Y-50304248D01*
X106890330Y-50619029D01*
X107376511Y-50943885D01*
X107950000Y-51057959D01*
X108523489Y-50943885D01*
X109009670Y-50619029D01*
X109220000Y-50304248D01*
X109430330Y-50619029D01*
X109916511Y-50943885D01*
X110490000Y-51057959D01*
X111063489Y-50943885D01*
X111549670Y-50619029D01*
X111760000Y-50304248D01*
X111970330Y-50619029D01*
X112456511Y-50943885D01*
X113030000Y-51057959D01*
X113603489Y-50943885D01*
X114089670Y-50619029D01*
X114300000Y-50304248D01*
X114510330Y-50619029D01*
X114996511Y-50943885D01*
X115570000Y-51057959D01*
X116143489Y-50943885D01*
X116629670Y-50619029D01*
X116840000Y-50304248D01*
X117050330Y-50619029D01*
X117536511Y-50943885D01*
X118110000Y-51057959D01*
X118683489Y-50943885D01*
X119169670Y-50619029D01*
X119380000Y-50304248D01*
X119590330Y-50619029D01*
X120076511Y-50943885D01*
X120650000Y-51057959D01*
X121223489Y-50943885D01*
X121709670Y-50619029D01*
X121920000Y-50304248D01*
X122130330Y-50619029D01*
X122616511Y-50943885D01*
X123190000Y-51057959D01*
X123763489Y-50943885D01*
X124249670Y-50619029D01*
X124460000Y-50304248D01*
X124670330Y-50619029D01*
X125156511Y-50943885D01*
X125730000Y-51057959D01*
X126303489Y-50943885D01*
X126789670Y-50619029D01*
X127000000Y-50304248D01*
X127210330Y-50619029D01*
X127696511Y-50943885D01*
X128270000Y-51057959D01*
X128843489Y-50943885D01*
X129329670Y-50619029D01*
X129540000Y-50304248D01*
X129750330Y-50619029D01*
X130236511Y-50943885D01*
X130810000Y-51057959D01*
X131383489Y-50943885D01*
X131869670Y-50619029D01*
X132080000Y-50304248D01*
X132290330Y-50619029D01*
X132776511Y-50943885D01*
X133350000Y-51057959D01*
X133923489Y-50943885D01*
X134409670Y-50619029D01*
X134620000Y-50304248D01*
X134830330Y-50619029D01*
X135316511Y-50943885D01*
X135890000Y-51057959D01*
X136463489Y-50943885D01*
X136949670Y-50619029D01*
X137160000Y-50304248D01*
X137370330Y-50619029D01*
X137856511Y-50943885D01*
X138430000Y-51057959D01*
X139003489Y-50943885D01*
X139489670Y-50619029D01*
X139700000Y-50304248D01*
X139910330Y-50619029D01*
X140396511Y-50943885D01*
X140970000Y-51057959D01*
X141543489Y-50943885D01*
X142029670Y-50619029D01*
X142240000Y-50304248D01*
X142450330Y-50619029D01*
X142936511Y-50943885D01*
X143510000Y-51057959D01*
X144083489Y-50943885D01*
X144569670Y-50619029D01*
X144894526Y-50132848D01*
X145008600Y-49559359D01*
X145008600Y-49500641D01*
X144894526Y-48927152D01*
X144873043Y-48895000D01*
X145636655Y-48895000D01*
X145750729Y-49468489D01*
X146075585Y-49954670D01*
X146390366Y-50165000D01*
X146075585Y-50375330D01*
X145750729Y-50861511D01*
X145636655Y-51435000D01*
X145750729Y-52008489D01*
X146075585Y-52494670D01*
X146390366Y-52705000D01*
X146075585Y-52915330D01*
X145750729Y-53401511D01*
X145636655Y-53975000D01*
X145750729Y-54548489D01*
X146075585Y-55034670D01*
X146390366Y-55245000D01*
X146075585Y-55455330D01*
X145750729Y-55941511D01*
X145636655Y-56515000D01*
X145750729Y-57088489D01*
X146075585Y-57574670D01*
X146561766Y-57899526D01*
X147135255Y-58013600D01*
X147504745Y-58013600D01*
X148078234Y-57899526D01*
X148564415Y-57574670D01*
X148889271Y-57088489D01*
X149003345Y-56515000D01*
X148889271Y-55941511D01*
X148564415Y-55455330D01*
X148249634Y-55245000D01*
X148564415Y-55034670D01*
X148889271Y-54548489D01*
X149003345Y-53975000D01*
X148889271Y-53401511D01*
X148564415Y-52915330D01*
X148249634Y-52705000D01*
X148564415Y-52494670D01*
X148889271Y-52008489D01*
X149003345Y-51435000D01*
X148889271Y-50861511D01*
X148564415Y-50375330D01*
X148249634Y-50165000D01*
X148564415Y-49954670D01*
X148889271Y-49468489D01*
X149003345Y-48895000D01*
X148889271Y-48321511D01*
X148564415Y-47835330D01*
X148542220Y-47820500D01*
X148695698Y-47756927D01*
X148874327Y-47578299D01*
X148971000Y-47344910D01*
X148971000Y-46640750D01*
X148812250Y-46482000D01*
X147447000Y-46482000D01*
X147447000Y-46502000D01*
X147193000Y-46502000D01*
X147193000Y-46482000D01*
X145827750Y-46482000D01*
X145669000Y-46640750D01*
X145669000Y-47344910D01*
X145765673Y-47578299D01*
X145944302Y-47756927D01*
X146097780Y-47820500D01*
X146075585Y-47835330D01*
X145750729Y-48321511D01*
X145636655Y-48895000D01*
X144873043Y-48895000D01*
X144569670Y-48440971D01*
X144298828Y-48260000D01*
X144569670Y-48079029D01*
X144894526Y-47592848D01*
X145008600Y-47019359D01*
X145008600Y-46960641D01*
X144894526Y-46387152D01*
X144569670Y-45900971D01*
X144083489Y-45576115D01*
X143510000Y-45462041D01*
X142936511Y-45576115D01*
X142450330Y-45900971D01*
X142240000Y-46215752D01*
X142029670Y-45900971D01*
X141543489Y-45576115D01*
X140970000Y-45462041D01*
X140396511Y-45576115D01*
X139910330Y-45900971D01*
X139700000Y-46215752D01*
X139489670Y-45900971D01*
X139003489Y-45576115D01*
X138430000Y-45462041D01*
X137856511Y-45576115D01*
X137370330Y-45900971D01*
X137160000Y-46215752D01*
X136949670Y-45900971D01*
X136463489Y-45576115D01*
X135890000Y-45462041D01*
X135316511Y-45576115D01*
X134830330Y-45900971D01*
X134620000Y-46215752D01*
X134409670Y-45900971D01*
X133923489Y-45576115D01*
X133627275Y-45517194D01*
X133967873Y-45376462D01*
X134005400Y-45339000D01*
X145679807Y-45339000D01*
X145669000Y-45365090D01*
X145669000Y-46069250D01*
X145827750Y-46228000D01*
X147193000Y-46228000D01*
X147193000Y-46208000D01*
X147447000Y-46208000D01*
X147447000Y-46228000D01*
X148812250Y-46228000D01*
X148971000Y-46069250D01*
X148971000Y-45365090D01*
X148960193Y-45339000D01*
X153936764Y-45339000D01*
X154686000Y-46088236D01*
X154686000Y-46901547D01*
X154515330Y-47015585D01*
X154305000Y-47330366D01*
X154094670Y-47015585D01*
X153608489Y-46690729D01*
X153035000Y-46576655D01*
X152461511Y-46690729D01*
X151975330Y-47015585D01*
X151650474Y-47501766D01*
X151536400Y-48075255D01*
X151536400Y-48444745D01*
X151650474Y-49018234D01*
X151975330Y-49504415D01*
X152461511Y-49829271D01*
X153035000Y-49943345D01*
X153608489Y-49829271D01*
X154094670Y-49504415D01*
X154305000Y-49189634D01*
X154515330Y-49504415D01*
X155001511Y-49829271D01*
X155575000Y-49943345D01*
X156148489Y-49829271D01*
X156634670Y-49504415D01*
X156845000Y-49189634D01*
X157055330Y-49504415D01*
X157541511Y-49829271D01*
X158115000Y-49943345D01*
X158688489Y-49829271D01*
X159174670Y-49504415D01*
X159385000Y-49189634D01*
X159595330Y-49504415D01*
X160081511Y-49829271D01*
X160655000Y-49943345D01*
X161228489Y-49829271D01*
X161714670Y-49504415D01*
X161925000Y-49189634D01*
X162135330Y-49504415D01*
X162621511Y-49829271D01*
X163195000Y-49943345D01*
X163768489Y-49829271D01*
X164254670Y-49504415D01*
X164465000Y-49189634D01*
X164675330Y-49504415D01*
X165161511Y-49829271D01*
X165735000Y-49943345D01*
X166308489Y-49829271D01*
X166794670Y-49504415D01*
X167005000Y-49189634D01*
X167215330Y-49504415D01*
X167701511Y-49829271D01*
X168275000Y-49943345D01*
X168848489Y-49829271D01*
X169334670Y-49504415D01*
X169545000Y-49189634D01*
X169755330Y-49504415D01*
X170241511Y-49829271D01*
X170815000Y-49943345D01*
X171388489Y-49829271D01*
X171874670Y-49504415D01*
X172085000Y-49189634D01*
X172295330Y-49504415D01*
X172781511Y-49829271D01*
X173355000Y-49943345D01*
X173928489Y-49829271D01*
X174414670Y-49504415D01*
X174625000Y-49189634D01*
X174835330Y-49504415D01*
X175321511Y-49829271D01*
X175895000Y-49943345D01*
X176468489Y-49829271D01*
X176954670Y-49504415D01*
X177165000Y-49189634D01*
X177375330Y-49504415D01*
X177861511Y-49829271D01*
X178435000Y-49943345D01*
X179008489Y-49829271D01*
X179494670Y-49504415D01*
X179705000Y-49189634D01*
X179915330Y-49504415D01*
X180401511Y-49829271D01*
X180975000Y-49943345D01*
X181548489Y-49829271D01*
X182034670Y-49504415D01*
X182245000Y-49189634D01*
X182455330Y-49504415D01*
X182941511Y-49829271D01*
X183515000Y-49943345D01*
X184088489Y-49829271D01*
X184574670Y-49504415D01*
X184589500Y-49482220D01*
X184653073Y-49635699D01*
X184831702Y-49814327D01*
X185065091Y-49911000D01*
X185769250Y-49911000D01*
X185928000Y-49752250D01*
X185928000Y-48387000D01*
X185908000Y-48387000D01*
X185908000Y-48133000D01*
X185928000Y-48133000D01*
X185928000Y-46767750D01*
X185769250Y-46609000D01*
X185065091Y-46609000D01*
X184831702Y-46705673D01*
X184653073Y-46884301D01*
X184589500Y-47037780D01*
X184574670Y-47015585D01*
X184088489Y-46690729D01*
X183515000Y-46576655D01*
X182941511Y-46690729D01*
X182455330Y-47015585D01*
X182245000Y-47330366D01*
X182034670Y-47015585D01*
X181548489Y-46690729D01*
X180975000Y-46576655D01*
X180401511Y-46690729D01*
X179915330Y-47015585D01*
X179705000Y-47330366D01*
X179494670Y-47015585D01*
X179008489Y-46690729D01*
X178435000Y-46576655D01*
X177861511Y-46690729D01*
X177375330Y-47015585D01*
X177165000Y-47330366D01*
X176954670Y-47015585D01*
X176468489Y-46690729D01*
X175895000Y-46576655D01*
X175321511Y-46690729D01*
X174835330Y-47015585D01*
X174625000Y-47330366D01*
X174414670Y-47015585D01*
X173928489Y-46690729D01*
X173355000Y-46576655D01*
X172781511Y-46690729D01*
X172295330Y-47015585D01*
X172085000Y-47330366D01*
X171874670Y-47015585D01*
X171388489Y-46690729D01*
X170815000Y-46576655D01*
X170241511Y-46690729D01*
X169755330Y-47015585D01*
X169545000Y-47330366D01*
X169334670Y-47015585D01*
X168848489Y-46690729D01*
X168275000Y-46576655D01*
X167701511Y-46690729D01*
X167215330Y-47015585D01*
X167005000Y-47330366D01*
X166794670Y-47015585D01*
X166624000Y-46901547D01*
X166624000Y-45085000D01*
X166578529Y-44856400D01*
X166556330Y-44744795D01*
X166363618Y-44456382D01*
X164894855Y-42987619D01*
X167309613Y-42987619D01*
X167649155Y-43809372D01*
X168277321Y-44438636D01*
X169098481Y-44779611D01*
X169987619Y-44780387D01*
X170809372Y-44440845D01*
X171438636Y-43812679D01*
X171779611Y-42991519D01*
X171779614Y-42987619D01*
X179374613Y-42987619D01*
X179714155Y-43809372D01*
X180342321Y-44438636D01*
X181163481Y-44779611D01*
X182052619Y-44780387D01*
X182874372Y-44440845D01*
X183503636Y-43812679D01*
X183844611Y-42991519D01*
X183845387Y-42102381D01*
X183505845Y-41280628D01*
X182877679Y-40651364D01*
X182056519Y-40310389D01*
X181167381Y-40309613D01*
X180345628Y-40649155D01*
X179716364Y-41277321D01*
X179375389Y-42098481D01*
X179374613Y-42987619D01*
X171779614Y-42987619D01*
X171780387Y-42102381D01*
X171440845Y-41280628D01*
X170812679Y-40651364D01*
X169991519Y-40310389D01*
X169102381Y-40309613D01*
X168280628Y-40649155D01*
X167651364Y-41277321D01*
X167310389Y-42098481D01*
X167309613Y-42987619D01*
X164894855Y-42987619D01*
X160717236Y-38810000D01*
X187250000Y-38810000D01*
X187250000Y-46693952D01*
X187250000Y-46693952D01*
G37*
X187250000Y-46693952D02*
X187044909Y-46609000D01*
X186340750Y-46609000D01*
X186182000Y-46767750D01*
X186182000Y-48133000D01*
X186202000Y-48133000D01*
X186202000Y-48387000D01*
X186182000Y-48387000D01*
X186182000Y-49752250D01*
X186340750Y-49911000D01*
X187044909Y-49911000D01*
X187250000Y-49826048D01*
X187250000Y-61941896D01*
X187170490Y-61887569D01*
X186918600Y-61836560D01*
X185191400Y-61836560D01*
X184956083Y-61880838D01*
X184739959Y-62019910D01*
X184594969Y-62232110D01*
X184586600Y-62273439D01*
X184574670Y-62255585D01*
X184088489Y-61930729D01*
X183515000Y-61816655D01*
X182941511Y-61930729D01*
X182455330Y-62255585D01*
X182245000Y-62570366D01*
X182034670Y-62255585D01*
X181548489Y-61930729D01*
X180975000Y-61816655D01*
X180401511Y-61930729D01*
X179915330Y-62255585D01*
X179705000Y-62570366D01*
X179494670Y-62255585D01*
X179008489Y-61930729D01*
X178435000Y-61816655D01*
X177861511Y-61930729D01*
X177375330Y-62255585D01*
X177165000Y-62570366D01*
X176954670Y-62255585D01*
X176468489Y-61930729D01*
X175895000Y-61816655D01*
X175321511Y-61930729D01*
X174835330Y-62255585D01*
X174625000Y-62570366D01*
X174414670Y-62255585D01*
X173928489Y-61930729D01*
X173355000Y-61816655D01*
X172781511Y-61930729D01*
X172295330Y-62255585D01*
X172085000Y-62570366D01*
X171874670Y-62255585D01*
X171388489Y-61930729D01*
X170815000Y-61816655D01*
X170241511Y-61930729D01*
X169755330Y-62255585D01*
X169545000Y-62570366D01*
X169334670Y-62255585D01*
X168848489Y-61930729D01*
X168275000Y-61816655D01*
X167701511Y-61930729D01*
X167215330Y-62255585D01*
X167005000Y-62570366D01*
X166794670Y-62255585D01*
X166308489Y-61930729D01*
X165735000Y-61816655D01*
X165161511Y-61930729D01*
X164675330Y-62255585D01*
X164465000Y-62570366D01*
X164254670Y-62255585D01*
X163768489Y-61930729D01*
X163195000Y-61816655D01*
X162621511Y-61930729D01*
X162135330Y-62255585D01*
X161925000Y-62570366D01*
X161714670Y-62255585D01*
X161228489Y-61930729D01*
X160655000Y-61816655D01*
X160081511Y-61930729D01*
X159595330Y-62255585D01*
X159385000Y-62570366D01*
X159174670Y-62255585D01*
X158688489Y-61930729D01*
X158115000Y-61816655D01*
X157541511Y-61930729D01*
X157055330Y-62255585D01*
X156845000Y-62570366D01*
X156634670Y-62255585D01*
X156148489Y-61930729D01*
X155575000Y-61816655D01*
X155001511Y-61930729D01*
X154515330Y-62255585D01*
X154305000Y-62570366D01*
X154094670Y-62255585D01*
X153608489Y-61930729D01*
X153035000Y-61816655D01*
X152461511Y-61930729D01*
X151975330Y-62255585D01*
X151650474Y-62741766D01*
X151536400Y-63315255D01*
X151536400Y-63684745D01*
X151650474Y-64258234D01*
X151942312Y-64695000D01*
X144892189Y-64695000D01*
X144956061Y-64601520D01*
X145007070Y-64349630D01*
X145007070Y-62650370D01*
X144962792Y-62415053D01*
X144823720Y-62198929D01*
X144611520Y-62053939D01*
X144359630Y-62002930D01*
X142660370Y-62002930D01*
X142425053Y-62047208D01*
X142237912Y-62167630D01*
X142071520Y-62053939D01*
X141819630Y-62002930D01*
X140120370Y-62002930D01*
X139885053Y-62047208D01*
X139697912Y-62167630D01*
X139531520Y-62053939D01*
X139279630Y-62002930D01*
X137580370Y-62002930D01*
X137345053Y-62047208D01*
X137157912Y-62167630D01*
X136991520Y-62053939D01*
X136739630Y-62002930D01*
X135040370Y-62002930D01*
X134805053Y-62047208D01*
X134617912Y-62167630D01*
X134451520Y-62053939D01*
X134199630Y-62002930D01*
X132500370Y-62002930D01*
X132265053Y-62047208D01*
X132077912Y-62167630D01*
X131911520Y-62053939D01*
X131659630Y-62002930D01*
X129960370Y-62002930D01*
X129725053Y-62047208D01*
X129537912Y-62167630D01*
X129371520Y-62053939D01*
X129119630Y-62002930D01*
X127420370Y-62002930D01*
X127185053Y-62047208D01*
X126997912Y-62167630D01*
X126831520Y-62053939D01*
X126579630Y-62002930D01*
X124880370Y-62002930D01*
X124645053Y-62047208D01*
X124457912Y-62167630D01*
X124291520Y-62053939D01*
X124039630Y-62002930D01*
X122340370Y-62002930D01*
X122105053Y-62047208D01*
X121917912Y-62167630D01*
X121751520Y-62053939D01*
X121499630Y-62002930D01*
X119800370Y-62002930D01*
X119565053Y-62047208D01*
X119377912Y-62167630D01*
X119211520Y-62053939D01*
X118959630Y-62002930D01*
X117260370Y-62002930D01*
X117025053Y-62047208D01*
X116837912Y-62167630D01*
X116671520Y-62053939D01*
X116419630Y-62002930D01*
X114720370Y-62002930D01*
X114485053Y-62047208D01*
X114297912Y-62167630D01*
X114131520Y-62053939D01*
X113879630Y-62002930D01*
X112180370Y-62002930D01*
X111945053Y-62047208D01*
X111757912Y-62167630D01*
X111591520Y-62053939D01*
X111339630Y-62002930D01*
X109640370Y-62002930D01*
X109405053Y-62047208D01*
X109217912Y-62167630D01*
X109051520Y-62053939D01*
X108799630Y-62002930D01*
X107100370Y-62002930D01*
X106865053Y-62047208D01*
X106677912Y-62167630D01*
X106511520Y-62053939D01*
X106259630Y-62002930D01*
X104560370Y-62002930D01*
X104325053Y-62047208D01*
X104137912Y-62167630D01*
X103971520Y-62053939D01*
X103719630Y-62002930D01*
X102020370Y-62002930D01*
X101785053Y-62047208D01*
X101597912Y-62167630D01*
X101431520Y-62053939D01*
X101179630Y-62002930D01*
X99480370Y-62002930D01*
X99245053Y-62047208D01*
X99057912Y-62167630D01*
X98891520Y-62053939D01*
X98639630Y-62002930D01*
X96940370Y-62002930D01*
X96705053Y-62047208D01*
X96517912Y-62167630D01*
X96351520Y-62053939D01*
X96099630Y-62002930D01*
X94400370Y-62002930D01*
X94165053Y-62047208D01*
X93977912Y-62167630D01*
X93811520Y-62053939D01*
X93559630Y-62002930D01*
X91860370Y-62002930D01*
X91625053Y-62047208D01*
X91437912Y-62167630D01*
X91271520Y-62053939D01*
X91019630Y-62002930D01*
X89320370Y-62002930D01*
X89085053Y-62047208D01*
X88897912Y-62167630D01*
X88731520Y-62053939D01*
X88479630Y-62002930D01*
X86780370Y-62002930D01*
X86545053Y-62047208D01*
X86357912Y-62167630D01*
X86191520Y-62053939D01*
X85939630Y-62002930D01*
X84240370Y-62002930D01*
X84005053Y-62047208D01*
X83817912Y-62167630D01*
X83651520Y-62053939D01*
X83399630Y-62002930D01*
X81700370Y-62002930D01*
X81465053Y-62047208D01*
X81277912Y-62167630D01*
X81111520Y-62053939D01*
X80859630Y-62002930D01*
X79160370Y-62002930D01*
X78925053Y-62047208D01*
X78737912Y-62167630D01*
X78571520Y-62053939D01*
X78319630Y-62002930D01*
X76620370Y-62002930D01*
X76385053Y-62047208D01*
X76197912Y-62167630D01*
X76031520Y-62053939D01*
X75779630Y-62002930D01*
X74080370Y-62002930D01*
X73845053Y-62047208D01*
X73657912Y-62167630D01*
X73491520Y-62053939D01*
X73239630Y-62002930D01*
X71540370Y-62002930D01*
X71305053Y-62047208D01*
X71117912Y-62167630D01*
X70951520Y-62053939D01*
X70699630Y-62002930D01*
X69000370Y-62002930D01*
X68765053Y-62047208D01*
X68655000Y-62118025D01*
X68655000Y-54244331D01*
X69007926Y-54597874D01*
X69553393Y-54824372D01*
X70144016Y-54824888D01*
X70689877Y-54599342D01*
X71107874Y-54182074D01*
X71119749Y-54153476D01*
X71130658Y-54179877D01*
X71547926Y-54597874D01*
X72093393Y-54824372D01*
X72684016Y-54824888D01*
X73229877Y-54599342D01*
X73647874Y-54182074D01*
X73659749Y-54153476D01*
X73670658Y-54179877D01*
X74087926Y-54597874D01*
X74633393Y-54824372D01*
X75224016Y-54824888D01*
X75769877Y-54599342D01*
X76187874Y-54182074D01*
X76199749Y-54153476D01*
X76210658Y-54179877D01*
X76627926Y-54597874D01*
X77173393Y-54824372D01*
X77764016Y-54824888D01*
X78309877Y-54599342D01*
X78727874Y-54182074D01*
X78739749Y-54153476D01*
X78750658Y-54179877D01*
X79167926Y-54597874D01*
X79713393Y-54824372D01*
X80304016Y-54824888D01*
X80849877Y-54599342D01*
X81267874Y-54182074D01*
X81279749Y-54153476D01*
X81290658Y-54179877D01*
X81707926Y-54597874D01*
X82253393Y-54824372D01*
X82844016Y-54824888D01*
X83389877Y-54599342D01*
X83807874Y-54182074D01*
X83819749Y-54153476D01*
X83830658Y-54179877D01*
X84247926Y-54597874D01*
X84793393Y-54824372D01*
X85384016Y-54824888D01*
X85929877Y-54599342D01*
X86347874Y-54182074D01*
X86359749Y-54153476D01*
X86370658Y-54179877D01*
X86787926Y-54597874D01*
X87333393Y-54824372D01*
X87924016Y-54824888D01*
X88469877Y-54599342D01*
X88887874Y-54182074D01*
X88899749Y-54153476D01*
X88910658Y-54179877D01*
X89327926Y-54597874D01*
X89873393Y-54824372D01*
X90464016Y-54824888D01*
X91009877Y-54599342D01*
X91427874Y-54182074D01*
X91439749Y-54153476D01*
X91450658Y-54179877D01*
X91867926Y-54597874D01*
X92413393Y-54824372D01*
X93004016Y-54824888D01*
X93549877Y-54599342D01*
X93967874Y-54182074D01*
X93979749Y-54153476D01*
X93990658Y-54179877D01*
X94407926Y-54597874D01*
X94953393Y-54824372D01*
X95544016Y-54824888D01*
X96089877Y-54599342D01*
X96507874Y-54182074D01*
X96519749Y-54153476D01*
X96530658Y-54179877D01*
X96947926Y-54597874D01*
X97493393Y-54824372D01*
X98084016Y-54824888D01*
X98629877Y-54599342D01*
X99047874Y-54182074D01*
X99059749Y-54153476D01*
X99070658Y-54179877D01*
X99487926Y-54597874D01*
X100033393Y-54824372D01*
X100624016Y-54824888D01*
X101169877Y-54599342D01*
X101587874Y-54182074D01*
X101599749Y-54153476D01*
X101610658Y-54179877D01*
X102027926Y-54597874D01*
X102573393Y-54824372D01*
X103164016Y-54824888D01*
X103709877Y-54599342D01*
X104127874Y-54182074D01*
X104139749Y-54153476D01*
X104150658Y-54179877D01*
X104567926Y-54597874D01*
X105113393Y-54824372D01*
X105704016Y-54824888D01*
X106249877Y-54599342D01*
X106667874Y-54182074D01*
X106679749Y-54153476D01*
X106690658Y-54179877D01*
X107107926Y-54597874D01*
X107653393Y-54824372D01*
X108244016Y-54824888D01*
X108789877Y-54599342D01*
X109207874Y-54182074D01*
X109219749Y-54153476D01*
X109230658Y-54179877D01*
X109647926Y-54597874D01*
X110193393Y-54824372D01*
X110784016Y-54824888D01*
X111329877Y-54599342D01*
X111747874Y-54182074D01*
X111759749Y-54153476D01*
X111770658Y-54179877D01*
X112187926Y-54597874D01*
X112733393Y-54824372D01*
X113324016Y-54824888D01*
X113869877Y-54599342D01*
X114287874Y-54182074D01*
X114299749Y-54153476D01*
X114310658Y-54179877D01*
X114727926Y-54597874D01*
X115273393Y-54824372D01*
X115864016Y-54824888D01*
X116409877Y-54599342D01*
X116827874Y-54182074D01*
X116839749Y-54153476D01*
X116850658Y-54179877D01*
X117267926Y-54597874D01*
X117813393Y-54824372D01*
X118404016Y-54824888D01*
X118949877Y-54599342D01*
X119367874Y-54182074D01*
X119379749Y-54153476D01*
X119390658Y-54179877D01*
X119807926Y-54597874D01*
X120353393Y-54824372D01*
X120944016Y-54824888D01*
X121489877Y-54599342D01*
X121907874Y-54182074D01*
X121919749Y-54153476D01*
X121930658Y-54179877D01*
X122347926Y-54597874D01*
X122893393Y-54824372D01*
X123484016Y-54824888D01*
X124029877Y-54599342D01*
X124447874Y-54182074D01*
X124459749Y-54153476D01*
X124470658Y-54179877D01*
X124887926Y-54597874D01*
X125433393Y-54824372D01*
X126024016Y-54824888D01*
X126569877Y-54599342D01*
X126987874Y-54182074D01*
X126999749Y-54153476D01*
X127010658Y-54179877D01*
X127427926Y-54597874D01*
X127973393Y-54824372D01*
X128564016Y-54824888D01*
X129109877Y-54599342D01*
X129527874Y-54182074D01*
X129539749Y-54153476D01*
X129550658Y-54179877D01*
X129967926Y-54597874D01*
X130513393Y-54824372D01*
X131104016Y-54824888D01*
X131649877Y-54599342D01*
X132067874Y-54182074D01*
X132079749Y-54153476D01*
X132090658Y-54179877D01*
X132507926Y-54597874D01*
X133053393Y-54824372D01*
X133644016Y-54824888D01*
X134189877Y-54599342D01*
X134607874Y-54182074D01*
X134619749Y-54153476D01*
X134630658Y-54179877D01*
X135047926Y-54597874D01*
X135593393Y-54824372D01*
X136184016Y-54824888D01*
X136729877Y-54599342D01*
X137147874Y-54182074D01*
X137159749Y-54153476D01*
X137170658Y-54179877D01*
X137587926Y-54597874D01*
X138133393Y-54824372D01*
X138724016Y-54824888D01*
X139269877Y-54599342D01*
X139687874Y-54182074D01*
X139699749Y-54153476D01*
X139710658Y-54179877D01*
X140127926Y-54597874D01*
X140673393Y-54824372D01*
X141264016Y-54824888D01*
X141809877Y-54599342D01*
X142227874Y-54182074D01*
X142239749Y-54153476D01*
X142250658Y-54179877D01*
X142667926Y-54597874D01*
X143213393Y-54824372D01*
X143804016Y-54824888D01*
X144349877Y-54599342D01*
X144767874Y-54182074D01*
X144994372Y-53636607D01*
X144994888Y-53045984D01*
X144769342Y-52500123D01*
X144352074Y-52082126D01*
X143806607Y-51855628D01*
X143215984Y-51855112D01*
X142670123Y-52080658D01*
X142252126Y-52497926D01*
X142240251Y-52526524D01*
X142229342Y-52500123D01*
X141812074Y-52082126D01*
X141266607Y-51855628D01*
X140675984Y-51855112D01*
X140130123Y-52080658D01*
X139712126Y-52497926D01*
X139700251Y-52526524D01*
X139689342Y-52500123D01*
X139272074Y-52082126D01*
X138726607Y-51855628D01*
X138135984Y-51855112D01*
X137590123Y-52080658D01*
X137172126Y-52497926D01*
X137160251Y-52526524D01*
X137149342Y-52500123D01*
X136732074Y-52082126D01*
X136186607Y-51855628D01*
X135595984Y-51855112D01*
X135050123Y-52080658D01*
X134632126Y-52497926D01*
X134620251Y-52526524D01*
X134609342Y-52500123D01*
X134192074Y-52082126D01*
X133646607Y-51855628D01*
X133055984Y-51855112D01*
X132510123Y-52080658D01*
X132092126Y-52497926D01*
X132080251Y-52526524D01*
X132069342Y-52500123D01*
X131652074Y-52082126D01*
X131106607Y-51855628D01*
X130515984Y-51855112D01*
X129970123Y-52080658D01*
X129552126Y-52497926D01*
X129540251Y-52526524D01*
X129529342Y-52500123D01*
X129112074Y-52082126D01*
X128566607Y-51855628D01*
X127975984Y-51855112D01*
X127430123Y-52080658D01*
X127012126Y-52497926D01*
X127000251Y-52526524D01*
X126989342Y-52500123D01*
X126572074Y-52082126D01*
X126026607Y-51855628D01*
X125435984Y-51855112D01*
X124890123Y-52080658D01*
X124472126Y-52497926D01*
X124460251Y-52526524D01*
X124449342Y-52500123D01*
X124032074Y-52082126D01*
X123486607Y-51855628D01*
X122895984Y-51855112D01*
X122350123Y-52080658D01*
X121932126Y-52497926D01*
X121920251Y-52526524D01*
X121909342Y-52500123D01*
X121492074Y-52082126D01*
X120946607Y-51855628D01*
X120355984Y-51855112D01*
X119810123Y-52080658D01*
X119392126Y-52497926D01*
X119380251Y-52526524D01*
X119369342Y-52500123D01*
X118952074Y-52082126D01*
X118406607Y-51855628D01*
X117815984Y-51855112D01*
X117270123Y-52080658D01*
X116852126Y-52497926D01*
X116840251Y-52526524D01*
X116829342Y-52500123D01*
X116412074Y-52082126D01*
X115866607Y-51855628D01*
X115275984Y-51855112D01*
X114730123Y-52080658D01*
X114312126Y-52497926D01*
X114300251Y-52526524D01*
X114289342Y-52500123D01*
X113872074Y-52082126D01*
X113326607Y-51855628D01*
X112735984Y-51855112D01*
X112190123Y-52080658D01*
X111772126Y-52497926D01*
X111760251Y-52526524D01*
X111749342Y-52500123D01*
X111332074Y-52082126D01*
X110786607Y-51855628D01*
X110195984Y-51855112D01*
X109650123Y-52080658D01*
X109232126Y-52497926D01*
X109220251Y-52526524D01*
X109209342Y-52500123D01*
X108792074Y-52082126D01*
X108246607Y-51855628D01*
X107655984Y-51855112D01*
X107110123Y-52080658D01*
X106692126Y-52497926D01*
X106680251Y-52526524D01*
X106669342Y-52500123D01*
X106252074Y-52082126D01*
X105706607Y-51855628D01*
X105115984Y-51855112D01*
X104570123Y-52080658D01*
X104152126Y-52497926D01*
X104140251Y-52526524D01*
X104129342Y-52500123D01*
X103712074Y-52082126D01*
X103166607Y-51855628D01*
X102575984Y-51855112D01*
X102030123Y-52080658D01*
X101612126Y-52497926D01*
X101600251Y-52526524D01*
X101589342Y-52500123D01*
X101172074Y-52082126D01*
X100626607Y-51855628D01*
X100035984Y-51855112D01*
X99490123Y-52080658D01*
X99072126Y-52497926D01*
X99060251Y-52526524D01*
X99049342Y-52500123D01*
X98632074Y-52082126D01*
X98086607Y-51855628D01*
X97495984Y-51855112D01*
X96950123Y-52080658D01*
X96532126Y-52497926D01*
X96520251Y-52526524D01*
X96509342Y-52500123D01*
X96092074Y-52082126D01*
X95546607Y-51855628D01*
X94955984Y-51855112D01*
X94410123Y-52080658D01*
X93992126Y-52497926D01*
X93980251Y-52526524D01*
X93969342Y-52500123D01*
X93552074Y-52082126D01*
X93006607Y-51855628D01*
X92415984Y-51855112D01*
X91870123Y-52080658D01*
X91452126Y-52497926D01*
X91440251Y-52526524D01*
X91429342Y-52500123D01*
X91012074Y-52082126D01*
X90466607Y-51855628D01*
X89875984Y-51855112D01*
X89330123Y-52080658D01*
X88912126Y-52497926D01*
X88900251Y-52526524D01*
X88889342Y-52500123D01*
X88472074Y-52082126D01*
X87926607Y-51855628D01*
X87335984Y-51855112D01*
X86790123Y-52080658D01*
X86372126Y-52497926D01*
X86360251Y-52526524D01*
X86349342Y-52500123D01*
X85932074Y-52082126D01*
X85386607Y-51855628D01*
X84795984Y-51855112D01*
X84250123Y-52080658D01*
X83832126Y-52497926D01*
X83820251Y-52526524D01*
X83809342Y-52500123D01*
X83392074Y-52082126D01*
X82846607Y-51855628D01*
X82255984Y-51855112D01*
X81710123Y-52080658D01*
X81292126Y-52497926D01*
X81280251Y-52526524D01*
X81269342Y-52500123D01*
X80852074Y-52082126D01*
X80306607Y-51855628D01*
X79715984Y-51855112D01*
X79170123Y-52080658D01*
X78752126Y-52497926D01*
X78740251Y-52526524D01*
X78729342Y-52500123D01*
X78312074Y-52082126D01*
X77766607Y-51855628D01*
X77175984Y-51855112D01*
X76630123Y-52080658D01*
X76212126Y-52497926D01*
X76200251Y-52526524D01*
X76189342Y-52500123D01*
X75772074Y-52082126D01*
X75226607Y-51855628D01*
X74635984Y-51855112D01*
X74090123Y-52080658D01*
X73672126Y-52497926D01*
X73660251Y-52526524D01*
X73649342Y-52500123D01*
X73232074Y-52082126D01*
X72686607Y-51855628D01*
X72095984Y-51855112D01*
X71550123Y-52080658D01*
X71132126Y-52497926D01*
X71120251Y-52526524D01*
X71109342Y-52500123D01*
X70692074Y-52082126D01*
X70146607Y-51855628D01*
X69555984Y-51855112D01*
X69010123Y-52080658D01*
X68655000Y-52435162D01*
X68655000Y-50935704D01*
X68734510Y-50990031D01*
X68986400Y-51041040D01*
X70713600Y-51041040D01*
X70948917Y-50996762D01*
X71165041Y-50857690D01*
X71310031Y-50645490D01*
X71318864Y-50601869D01*
X71330330Y-50619029D01*
X71816511Y-50943885D01*
X72390000Y-51057959D01*
X72963489Y-50943885D01*
X73449670Y-50619029D01*
X73660000Y-50304248D01*
X73870330Y-50619029D01*
X74356511Y-50943885D01*
X74930000Y-51057959D01*
X75503489Y-50943885D01*
X75989670Y-50619029D01*
X76200000Y-50304248D01*
X76410330Y-50619029D01*
X76896511Y-50943885D01*
X77470000Y-51057959D01*
X78043489Y-50943885D01*
X78529670Y-50619029D01*
X78740000Y-50304248D01*
X78950330Y-50619029D01*
X79436511Y-50943885D01*
X80010000Y-51057959D01*
X80583489Y-50943885D01*
X81069670Y-50619029D01*
X81280000Y-50304248D01*
X81490330Y-50619029D01*
X81976511Y-50943885D01*
X82550000Y-51057959D01*
X83123489Y-50943885D01*
X83609670Y-50619029D01*
X83820000Y-50304248D01*
X84030330Y-50619029D01*
X84516511Y-50943885D01*
X85090000Y-51057959D01*
X85663489Y-50943885D01*
X86149670Y-50619029D01*
X86360000Y-50304248D01*
X86570330Y-50619029D01*
X87056511Y-50943885D01*
X87630000Y-51057959D01*
X88203489Y-50943885D01*
X88689670Y-50619029D01*
X88900000Y-50304248D01*
X89110330Y-50619029D01*
X89596511Y-50943885D01*
X90170000Y-51057959D01*
X90743489Y-50943885D01*
X91229670Y-50619029D01*
X91440000Y-50304248D01*
X91650330Y-50619029D01*
X92136511Y-50943885D01*
X92710000Y-51057959D01*
X93283489Y-50943885D01*
X93769670Y-50619029D01*
X93980000Y-50304248D01*
X94190330Y-50619029D01*
X94676511Y-50943885D01*
X95250000Y-51057959D01*
X95823489Y-50943885D01*
X96309670Y-50619029D01*
X96520000Y-50304248D01*
X96730330Y-50619029D01*
X97216511Y-50943885D01*
X97790000Y-51057959D01*
X98363489Y-50943885D01*
X98849670Y-50619029D01*
X99060000Y-50304248D01*
X99270330Y-50619029D01*
X99756511Y-50943885D01*
X100330000Y-51057959D01*
X100903489Y-50943885D01*
X101389670Y-50619029D01*
X101600000Y-50304248D01*
X101810330Y-50619029D01*
X102296511Y-50943885D01*
X102870000Y-51057959D01*
X103443489Y-50943885D01*
X103929670Y-50619029D01*
X104140000Y-50304248D01*
X104350330Y-50619029D01*
X104836511Y-50943885D01*
X105410000Y-51057959D01*
X105983489Y-50943885D01*
X106469670Y-50619029D01*
X106680000Y-50304248D01*
X106890330Y-50619029D01*
X107376511Y-50943885D01*
X107950000Y-51057959D01*
X108523489Y-50943885D01*
X109009670Y-50619029D01*
X109220000Y-50304248D01*
X109430330Y-50619029D01*
X109916511Y-50943885D01*
X110490000Y-51057959D01*
X111063489Y-50943885D01*
X111549670Y-50619029D01*
X111760000Y-50304248D01*
X111970330Y-50619029D01*
X112456511Y-50943885D01*
X113030000Y-51057959D01*
X113603489Y-50943885D01*
X114089670Y-50619029D01*
X114300000Y-50304248D01*
X114510330Y-50619029D01*
X114996511Y-50943885D01*
X115570000Y-51057959D01*
X116143489Y-50943885D01*
X116629670Y-50619029D01*
X116840000Y-50304248D01*
X117050330Y-50619029D01*
X117536511Y-50943885D01*
X118110000Y-51057959D01*
X118683489Y-50943885D01*
X119169670Y-50619029D01*
X119380000Y-50304248D01*
X119590330Y-50619029D01*
X120076511Y-50943885D01*
X120650000Y-51057959D01*
X121223489Y-50943885D01*
X121709670Y-50619029D01*
X121920000Y-50304248D01*
X122130330Y-50619029D01*
X122616511Y-50943885D01*
X123190000Y-51057959D01*
X123763489Y-50943885D01*
X124249670Y-50619029D01*
X124460000Y-50304248D01*
X124670330Y-50619029D01*
X125156511Y-50943885D01*
X125730000Y-51057959D01*
X126303489Y-50943885D01*
X126789670Y-50619029D01*
X127000000Y-50304248D01*
X127210330Y-50619029D01*
X127696511Y-50943885D01*
X128270000Y-51057959D01*
X128843489Y-50943885D01*
X129329670Y-50619029D01*
X129540000Y-50304248D01*
X129750330Y-50619029D01*
X130236511Y-50943885D01*
X130810000Y-51057959D01*
X131383489Y-50943885D01*
X131869670Y-50619029D01*
X132080000Y-50304248D01*
X132290330Y-50619029D01*
X132776511Y-50943885D01*
X133350000Y-51057959D01*
X133923489Y-50943885D01*
X134409670Y-50619029D01*
X134620000Y-50304248D01*
X134830330Y-50619029D01*
X135316511Y-50943885D01*
X135890000Y-51057959D01*
X136463489Y-50943885D01*
X136949670Y-50619029D01*
X137160000Y-50304248D01*
X137370330Y-50619029D01*
X137856511Y-50943885D01*
X138430000Y-51057959D01*
X139003489Y-50943885D01*
X139489670Y-50619029D01*
X139700000Y-50304248D01*
X139910330Y-50619029D01*
X140396511Y-50943885D01*
X140970000Y-51057959D01*
X141543489Y-50943885D01*
X142029670Y-50619029D01*
X142240000Y-50304248D01*
X142450330Y-50619029D01*
X142936511Y-50943885D01*
X143510000Y-51057959D01*
X144083489Y-50943885D01*
X144569670Y-50619029D01*
X144894526Y-50132848D01*
X145008600Y-49559359D01*
X145008600Y-49500641D01*
X144894526Y-48927152D01*
X144873043Y-48895000D01*
X145636655Y-48895000D01*
X145750729Y-49468489D01*
X146075585Y-49954670D01*
X146390366Y-50165000D01*
X146075585Y-50375330D01*
X145750729Y-50861511D01*
X145636655Y-51435000D01*
X145750729Y-52008489D01*
X146075585Y-52494670D01*
X146390366Y-52705000D01*
X146075585Y-52915330D01*
X145750729Y-53401511D01*
X145636655Y-53975000D01*
X145750729Y-54548489D01*
X146075585Y-55034670D01*
X146390366Y-55245000D01*
X146075585Y-55455330D01*
X145750729Y-55941511D01*
X145636655Y-56515000D01*
X145750729Y-57088489D01*
X146075585Y-57574670D01*
X146561766Y-57899526D01*
X147135255Y-58013600D01*
X147504745Y-58013600D01*
X148078234Y-57899526D01*
X148564415Y-57574670D01*
X148889271Y-57088489D01*
X149003345Y-56515000D01*
X148889271Y-55941511D01*
X148564415Y-55455330D01*
X148249634Y-55245000D01*
X148564415Y-55034670D01*
X148889271Y-54548489D01*
X149003345Y-53975000D01*
X148889271Y-53401511D01*
X148564415Y-52915330D01*
X148249634Y-52705000D01*
X148564415Y-52494670D01*
X148889271Y-52008489D01*
X149003345Y-51435000D01*
X148889271Y-50861511D01*
X148564415Y-50375330D01*
X148249634Y-50165000D01*
X148564415Y-49954670D01*
X148889271Y-49468489D01*
X149003345Y-48895000D01*
X148889271Y-48321511D01*
X148564415Y-47835330D01*
X148542220Y-47820500D01*
X148695698Y-47756927D01*
X148874327Y-47578299D01*
X148971000Y-47344910D01*
X148971000Y-46640750D01*
X148812250Y-46482000D01*
X147447000Y-46482000D01*
X147447000Y-46502000D01*
X147193000Y-46502000D01*
X147193000Y-46482000D01*
X145827750Y-46482000D01*
X145669000Y-46640750D01*
X145669000Y-47344910D01*
X145765673Y-47578299D01*
X145944302Y-47756927D01*
X146097780Y-47820500D01*
X146075585Y-47835330D01*
X145750729Y-48321511D01*
X145636655Y-48895000D01*
X144873043Y-48895000D01*
X144569670Y-48440971D01*
X144298828Y-48260000D01*
X144569670Y-48079029D01*
X144894526Y-47592848D01*
X145008600Y-47019359D01*
X145008600Y-46960641D01*
X144894526Y-46387152D01*
X144569670Y-45900971D01*
X144083489Y-45576115D01*
X143510000Y-45462041D01*
X142936511Y-45576115D01*
X142450330Y-45900971D01*
X142240000Y-46215752D01*
X142029670Y-45900971D01*
X141543489Y-45576115D01*
X140970000Y-45462041D01*
X140396511Y-45576115D01*
X139910330Y-45900971D01*
X139700000Y-46215752D01*
X139489670Y-45900971D01*
X139003489Y-45576115D01*
X138430000Y-45462041D01*
X137856511Y-45576115D01*
X137370330Y-45900971D01*
X137160000Y-46215752D01*
X136949670Y-45900971D01*
X136463489Y-45576115D01*
X135890000Y-45462041D01*
X135316511Y-45576115D01*
X134830330Y-45900971D01*
X134620000Y-46215752D01*
X134409670Y-45900971D01*
X133923489Y-45576115D01*
X133627275Y-45517194D01*
X133967873Y-45376462D01*
X134005400Y-45339000D01*
X145679807Y-45339000D01*
X145669000Y-45365090D01*
X145669000Y-46069250D01*
X145827750Y-46228000D01*
X147193000Y-46228000D01*
X147193000Y-46208000D01*
X147447000Y-46208000D01*
X147447000Y-46228000D01*
X148812250Y-46228000D01*
X148971000Y-46069250D01*
X148971000Y-45365090D01*
X148960193Y-45339000D01*
X153936764Y-45339000D01*
X154686000Y-46088236D01*
X154686000Y-46901547D01*
X154515330Y-47015585D01*
X154305000Y-47330366D01*
X154094670Y-47015585D01*
X153608489Y-46690729D01*
X153035000Y-46576655D01*
X152461511Y-46690729D01*
X151975330Y-47015585D01*
X151650474Y-47501766D01*
X151536400Y-48075255D01*
X151536400Y-48444745D01*
X151650474Y-49018234D01*
X151975330Y-49504415D01*
X152461511Y-49829271D01*
X153035000Y-49943345D01*
X153608489Y-49829271D01*
X154094670Y-49504415D01*
X154305000Y-49189634D01*
X154515330Y-49504415D01*
X155001511Y-49829271D01*
X155575000Y-49943345D01*
X156148489Y-49829271D01*
X156634670Y-49504415D01*
X156845000Y-49189634D01*
X157055330Y-49504415D01*
X157541511Y-49829271D01*
X158115000Y-49943345D01*
X158688489Y-49829271D01*
X159174670Y-49504415D01*
X159385000Y-49189634D01*
X159595330Y-49504415D01*
X160081511Y-49829271D01*
X160655000Y-49943345D01*
X161228489Y-49829271D01*
X161714670Y-49504415D01*
X161925000Y-49189634D01*
X162135330Y-49504415D01*
X162621511Y-49829271D01*
X163195000Y-49943345D01*
X163768489Y-49829271D01*
X164254670Y-49504415D01*
X164465000Y-49189634D01*
X164675330Y-49504415D01*
X165161511Y-49829271D01*
X165735000Y-49943345D01*
X166308489Y-49829271D01*
X166794670Y-49504415D01*
X167005000Y-49189634D01*
X167215330Y-49504415D01*
X167701511Y-49829271D01*
X168275000Y-49943345D01*
X168848489Y-49829271D01*
X169334670Y-49504415D01*
X169545000Y-49189634D01*
X169755330Y-49504415D01*
X170241511Y-49829271D01*
X170815000Y-49943345D01*
X171388489Y-49829271D01*
X171874670Y-49504415D01*
X172085000Y-49189634D01*
X172295330Y-49504415D01*
X172781511Y-49829271D01*
X173355000Y-49943345D01*
X173928489Y-49829271D01*
X174414670Y-49504415D01*
X174625000Y-49189634D01*
X174835330Y-49504415D01*
X175321511Y-49829271D01*
X175895000Y-49943345D01*
X176468489Y-49829271D01*
X176954670Y-49504415D01*
X177165000Y-49189634D01*
X177375330Y-49504415D01*
X177861511Y-49829271D01*
X178435000Y-49943345D01*
X179008489Y-49829271D01*
X179494670Y-49504415D01*
X179705000Y-49189634D01*
X179915330Y-49504415D01*
X180401511Y-49829271D01*
X180975000Y-49943345D01*
X181548489Y-49829271D01*
X182034670Y-49504415D01*
X182245000Y-49189634D01*
X182455330Y-49504415D01*
X182941511Y-49829271D01*
X183515000Y-49943345D01*
X184088489Y-49829271D01*
X184574670Y-49504415D01*
X184589500Y-49482220D01*
X184653073Y-49635699D01*
X184831702Y-49814327D01*
X185065091Y-49911000D01*
X185769250Y-49911000D01*
X185928000Y-49752250D01*
X185928000Y-48387000D01*
X185908000Y-48387000D01*
X185908000Y-48133000D01*
X185928000Y-48133000D01*
X185928000Y-46767750D01*
X185769250Y-46609000D01*
X185065091Y-46609000D01*
X184831702Y-46705673D01*
X184653073Y-46884301D01*
X184589500Y-47037780D01*
X184574670Y-47015585D01*
X184088489Y-46690729D01*
X183515000Y-46576655D01*
X182941511Y-46690729D01*
X182455330Y-47015585D01*
X182245000Y-47330366D01*
X182034670Y-47015585D01*
X181548489Y-46690729D01*
X180975000Y-46576655D01*
X180401511Y-46690729D01*
X179915330Y-47015585D01*
X179705000Y-47330366D01*
X179494670Y-47015585D01*
X179008489Y-46690729D01*
X178435000Y-46576655D01*
X177861511Y-46690729D01*
X177375330Y-47015585D01*
X177165000Y-47330366D01*
X176954670Y-47015585D01*
X176468489Y-46690729D01*
X175895000Y-46576655D01*
X175321511Y-46690729D01*
X174835330Y-47015585D01*
X174625000Y-47330366D01*
X174414670Y-47015585D01*
X173928489Y-46690729D01*
X173355000Y-46576655D01*
X172781511Y-46690729D01*
X172295330Y-47015585D01*
X172085000Y-47330366D01*
X171874670Y-47015585D01*
X171388489Y-46690729D01*
X170815000Y-46576655D01*
X170241511Y-46690729D01*
X169755330Y-47015585D01*
X169545000Y-47330366D01*
X169334670Y-47015585D01*
X168848489Y-46690729D01*
X168275000Y-46576655D01*
X167701511Y-46690729D01*
X167215330Y-47015585D01*
X167005000Y-47330366D01*
X166794670Y-47015585D01*
X166624000Y-46901547D01*
X166624000Y-45085000D01*
X166578529Y-44856400D01*
X166556330Y-44744795D01*
X166363618Y-44456382D01*
X164894855Y-42987619D01*
X167309613Y-42987619D01*
X167649155Y-43809372D01*
X168277321Y-44438636D01*
X169098481Y-44779611D01*
X169987619Y-44780387D01*
X170809372Y-44440845D01*
X171438636Y-43812679D01*
X171779611Y-42991519D01*
X171779614Y-42987619D01*
X179374613Y-42987619D01*
X179714155Y-43809372D01*
X180342321Y-44438636D01*
X181163481Y-44779611D01*
X182052619Y-44780387D01*
X182874372Y-44440845D01*
X183503636Y-43812679D01*
X183844611Y-42991519D01*
X183845387Y-42102381D01*
X183505845Y-41280628D01*
X182877679Y-40651364D01*
X182056519Y-40310389D01*
X181167381Y-40309613D01*
X180345628Y-40649155D01*
X179716364Y-41277321D01*
X179375389Y-42098481D01*
X179374613Y-42987619D01*
X171779614Y-42987619D01*
X171780387Y-42102381D01*
X171440845Y-41280628D01*
X170812679Y-40651364D01*
X169991519Y-40310389D01*
X169102381Y-40309613D01*
X168280628Y-40649155D01*
X167651364Y-41277321D01*
X167310389Y-42098481D01*
X167309613Y-42987619D01*
X164894855Y-42987619D01*
X160717236Y-38810000D01*
X187250000Y-38810000D01*
X187250000Y-46693952D01*
M02*
