G04 #@! TF.FileFunction,Soldermask,Bot*
%FSLAX46Y46*%
G04 Gerber Fmt 4.6, Leading zero omitted, Abs format (unit mm)*
G04 Created by KiCad (PCBNEW 4.0.2+e4-6225~38~ubuntu16.04.1-stable) date Thu 23 Jun 2016 09:21:40 PM CEST*
%MOMM*%
G01*
G04 APERTURE LIST*
%ADD10C,0.100000*%
%ADD11C,0.010000*%
%ADD12C,3.600000*%
%ADD13R,2.127200X2.432000*%
%ADD14O,2.127200X2.432000*%
%ADD15C,2.099260*%
%ADD16R,2.099260X2.099260*%
%ADD17R,2.432000X2.127200*%
%ADD18O,2.432000X2.127200*%
%ADD19R,2.127200X2.127200*%
%ADD20O,2.127200X2.127200*%
G04 APERTURE END LIST*
D10*
D11*
G36*
X167292081Y-51292640D02*
X166346183Y-51605473D01*
X166062103Y-51730277D01*
X165418274Y-52093902D01*
X164916729Y-52527037D01*
X164538545Y-53047376D01*
X164430895Y-53255333D01*
X164337421Y-53467867D01*
X164274816Y-53663714D01*
X164237001Y-53885008D01*
X164217894Y-54173888D01*
X164211417Y-54572488D01*
X164211000Y-54779333D01*
X164223245Y-55370491D01*
X164270667Y-55855422D01*
X164369295Y-56265255D01*
X164535156Y-56631121D01*
X164784281Y-56984150D01*
X165132699Y-57355471D01*
X165596437Y-57776215D01*
X165877282Y-58015456D01*
X166155640Y-58281906D01*
X166396008Y-58568996D01*
X166530630Y-58783020D01*
X166656806Y-59131007D01*
X166703085Y-59460932D01*
X166667282Y-59726732D01*
X166581667Y-59859333D01*
X166465386Y-59997107D01*
X166509727Y-60082538D01*
X166713759Y-60114024D01*
X166729833Y-60114160D01*
X166962875Y-60150896D01*
X167262378Y-60244176D01*
X167449500Y-60321932D01*
X167894000Y-60528876D01*
X167894000Y-60309447D01*
X167902154Y-60185307D01*
X167954077Y-60126079D01*
X168090963Y-60117194D01*
X168354002Y-60144083D01*
X168359667Y-60144749D01*
X168665494Y-60162497D01*
X168818396Y-60130446D01*
X168824759Y-60056196D01*
X168690964Y-59947347D01*
X168423398Y-59811499D01*
X168028443Y-59656252D01*
X167916669Y-59617379D01*
X167259000Y-59393666D01*
X167233731Y-58862089D01*
X167226429Y-58561290D01*
X167252045Y-58368641D01*
X167328374Y-58223637D01*
X167465753Y-58073221D01*
X167733068Y-57882804D01*
X167980460Y-57850999D01*
X168195812Y-57967266D01*
X168367008Y-58221062D01*
X168481929Y-58601848D01*
X168525395Y-58995035D01*
X168546800Y-59478333D01*
X168871802Y-59531171D01*
X169217841Y-59665425D01*
X169391648Y-59827504D01*
X169586492Y-60071000D01*
X169586913Y-59790127D01*
X169600114Y-59602971D01*
X169661632Y-59544741D01*
X169777833Y-59567025D01*
X169982793Y-59667971D01*
X170158833Y-59799156D01*
X170349333Y-59973517D01*
X170349333Y-59795921D01*
X170272981Y-59546871D01*
X170071163Y-59305469D01*
X169784735Y-59111145D01*
X169547577Y-59022147D01*
X169365863Y-58973428D01*
X169244624Y-58914764D01*
X169164353Y-58812372D01*
X169105540Y-58632469D01*
X169048676Y-58341271D01*
X169004406Y-58081541D01*
X168967918Y-57766404D01*
X168987293Y-57591178D01*
X169008699Y-57564660D01*
X169114890Y-57534500D01*
X169360513Y-57481391D01*
X169718060Y-57410762D01*
X170160024Y-57328042D01*
X170658898Y-57238660D01*
X170673117Y-57236167D01*
X171615837Y-57061097D01*
X172407053Y-56891267D01*
X173064263Y-56721284D01*
X173604961Y-56545755D01*
X174046645Y-56359289D01*
X174406810Y-56156494D01*
X174582667Y-56031269D01*
X174778961Y-55835169D01*
X174967785Y-55576924D01*
X175112019Y-55315106D01*
X175174540Y-55108285D01*
X175174900Y-55096833D01*
X175236784Y-54978638D01*
X175395467Y-54948666D01*
X175626367Y-54875691D01*
X175893063Y-54670870D01*
X175914037Y-54650230D01*
X176089949Y-54459764D01*
X176171494Y-54301632D01*
X176184413Y-54110024D01*
X176077187Y-54110024D01*
X175976292Y-54413192D01*
X175790837Y-54652767D01*
X175549574Y-54806685D01*
X175281252Y-54852883D01*
X175014623Y-54769295D01*
X174887659Y-54668689D01*
X174732999Y-54494080D01*
X174637508Y-54351189D01*
X174582415Y-54271335D01*
X174527826Y-54351189D01*
X174350052Y-54601103D01*
X174098274Y-54787797D01*
X173836995Y-54863919D01*
X173829237Y-54864000D01*
X173523607Y-54792585D01*
X173291692Y-54603742D01*
X173140248Y-54335575D01*
X173076026Y-54026186D01*
X173105780Y-53713679D01*
X173236263Y-53436155D01*
X173474229Y-53231719D01*
X173534869Y-53203141D01*
X173856120Y-53137522D01*
X174145173Y-53230749D01*
X174413704Y-53481843D01*
X174555884Y-53624384D01*
X174637015Y-53628853D01*
X174643167Y-53616299D01*
X174817970Y-53349682D01*
X175089691Y-53162756D01*
X175223423Y-53121087D01*
X175493700Y-53146958D01*
X175758915Y-53297878D01*
X175969138Y-53535613D01*
X176064772Y-53765328D01*
X176077187Y-54110024D01*
X176184413Y-54110024D01*
X176185088Y-54100027D01*
X176170448Y-53914425D01*
X176119910Y-53612176D01*
X176016931Y-53402132D01*
X175862209Y-53239195D01*
X175632173Y-53092143D01*
X175371512Y-53008325D01*
X175134943Y-52997069D01*
X174977185Y-53067708D01*
X174963677Y-53085982D01*
X174873683Y-53087174D01*
X174698465Y-52991292D01*
X174569159Y-52895482D01*
X174422416Y-52781958D01*
X174290832Y-52703600D01*
X174138119Y-52652300D01*
X173927985Y-52619947D01*
X173624140Y-52598432D01*
X173190294Y-52579645D01*
X173148435Y-52578000D01*
X172069913Y-52535666D01*
X171611790Y-52185289D01*
X170822518Y-51680826D01*
X169989902Y-51338836D01*
X169119951Y-51159814D01*
X168218674Y-51144251D01*
X167292081Y-51292640D01*
X167292081Y-51292640D01*
G37*
X167292081Y-51292640D02*
X166346183Y-51605473D01*
X166062103Y-51730277D01*
X165418274Y-52093902D01*
X164916729Y-52527037D01*
X164538545Y-53047376D01*
X164430895Y-53255333D01*
X164337421Y-53467867D01*
X164274816Y-53663714D01*
X164237001Y-53885008D01*
X164217894Y-54173888D01*
X164211417Y-54572488D01*
X164211000Y-54779333D01*
X164223245Y-55370491D01*
X164270667Y-55855422D01*
X164369295Y-56265255D01*
X164535156Y-56631121D01*
X164784281Y-56984150D01*
X165132699Y-57355471D01*
X165596437Y-57776215D01*
X165877282Y-58015456D01*
X166155640Y-58281906D01*
X166396008Y-58568996D01*
X166530630Y-58783020D01*
X166656806Y-59131007D01*
X166703085Y-59460932D01*
X166667282Y-59726732D01*
X166581667Y-59859333D01*
X166465386Y-59997107D01*
X166509727Y-60082538D01*
X166713759Y-60114024D01*
X166729833Y-60114160D01*
X166962875Y-60150896D01*
X167262378Y-60244176D01*
X167449500Y-60321932D01*
X167894000Y-60528876D01*
X167894000Y-60309447D01*
X167902154Y-60185307D01*
X167954077Y-60126079D01*
X168090963Y-60117194D01*
X168354002Y-60144083D01*
X168359667Y-60144749D01*
X168665494Y-60162497D01*
X168818396Y-60130446D01*
X168824759Y-60056196D01*
X168690964Y-59947347D01*
X168423398Y-59811499D01*
X168028443Y-59656252D01*
X167916669Y-59617379D01*
X167259000Y-59393666D01*
X167233731Y-58862089D01*
X167226429Y-58561290D01*
X167252045Y-58368641D01*
X167328374Y-58223637D01*
X167465753Y-58073221D01*
X167733068Y-57882804D01*
X167980460Y-57850999D01*
X168195812Y-57967266D01*
X168367008Y-58221062D01*
X168481929Y-58601848D01*
X168525395Y-58995035D01*
X168546800Y-59478333D01*
X168871802Y-59531171D01*
X169217841Y-59665425D01*
X169391648Y-59827504D01*
X169586492Y-60071000D01*
X169586913Y-59790127D01*
X169600114Y-59602971D01*
X169661632Y-59544741D01*
X169777833Y-59567025D01*
X169982793Y-59667971D01*
X170158833Y-59799156D01*
X170349333Y-59973517D01*
X170349333Y-59795921D01*
X170272981Y-59546871D01*
X170071163Y-59305469D01*
X169784735Y-59111145D01*
X169547577Y-59022147D01*
X169365863Y-58973428D01*
X169244624Y-58914764D01*
X169164353Y-58812372D01*
X169105540Y-58632469D01*
X169048676Y-58341271D01*
X169004406Y-58081541D01*
X168967918Y-57766404D01*
X168987293Y-57591178D01*
X169008699Y-57564660D01*
X169114890Y-57534500D01*
X169360513Y-57481391D01*
X169718060Y-57410762D01*
X170160024Y-57328042D01*
X170658898Y-57238660D01*
X170673117Y-57236167D01*
X171615837Y-57061097D01*
X172407053Y-56891267D01*
X173064263Y-56721284D01*
X173604961Y-56545755D01*
X174046645Y-56359289D01*
X174406810Y-56156494D01*
X174582667Y-56031269D01*
X174778961Y-55835169D01*
X174967785Y-55576924D01*
X175112019Y-55315106D01*
X175174540Y-55108285D01*
X175174900Y-55096833D01*
X175236784Y-54978638D01*
X175395467Y-54948666D01*
X175626367Y-54875691D01*
X175893063Y-54670870D01*
X175914037Y-54650230D01*
X176089949Y-54459764D01*
X176171494Y-54301632D01*
X176184413Y-54110024D01*
X176077187Y-54110024D01*
X175976292Y-54413192D01*
X175790837Y-54652767D01*
X175549574Y-54806685D01*
X175281252Y-54852883D01*
X175014623Y-54769295D01*
X174887659Y-54668689D01*
X174732999Y-54494080D01*
X174637508Y-54351189D01*
X174582415Y-54271335D01*
X174527826Y-54351189D01*
X174350052Y-54601103D01*
X174098274Y-54787797D01*
X173836995Y-54863919D01*
X173829237Y-54864000D01*
X173523607Y-54792585D01*
X173291692Y-54603742D01*
X173140248Y-54335575D01*
X173076026Y-54026186D01*
X173105780Y-53713679D01*
X173236263Y-53436155D01*
X173474229Y-53231719D01*
X173534869Y-53203141D01*
X173856120Y-53137522D01*
X174145173Y-53230749D01*
X174413704Y-53481843D01*
X174555884Y-53624384D01*
X174637015Y-53628853D01*
X174643167Y-53616299D01*
X174817970Y-53349682D01*
X175089691Y-53162756D01*
X175223423Y-53121087D01*
X175493700Y-53146958D01*
X175758915Y-53297878D01*
X175969138Y-53535613D01*
X176064772Y-53765328D01*
X176077187Y-54110024D01*
X176184413Y-54110024D01*
X176185088Y-54100027D01*
X176170448Y-53914425D01*
X176119910Y-53612176D01*
X176016931Y-53402132D01*
X175862209Y-53239195D01*
X175632173Y-53092143D01*
X175371512Y-53008325D01*
X175134943Y-52997069D01*
X174977185Y-53067708D01*
X174963677Y-53085982D01*
X174873683Y-53087174D01*
X174698465Y-52991292D01*
X174569159Y-52895482D01*
X174422416Y-52781958D01*
X174290832Y-52703600D01*
X174138119Y-52652300D01*
X173927985Y-52619947D01*
X173624140Y-52598432D01*
X173190294Y-52579645D01*
X173148435Y-52578000D01*
X172069913Y-52535666D01*
X171611790Y-52185289D01*
X170822518Y-51680826D01*
X169989902Y-51338836D01*
X169119951Y-51159814D01*
X168218674Y-51144251D01*
X167292081Y-51292640D01*
G36*
X174998523Y-53826842D02*
X174847994Y-53970593D01*
X174757302Y-54124418D01*
X174752000Y-54159044D01*
X174815490Y-54286230D01*
X174958999Y-54427052D01*
X175112091Y-54517457D01*
X175154786Y-54525333D01*
X175284510Y-54470710D01*
X175380953Y-54392285D01*
X175488906Y-54236386D01*
X175514000Y-54144333D01*
X175448279Y-53980494D01*
X175299133Y-53829034D01*
X175140075Y-53763333D01*
X174998523Y-53826842D01*
X174998523Y-53826842D01*
G37*
X174998523Y-53826842D02*
X174847994Y-53970593D01*
X174757302Y-54124418D01*
X174752000Y-54159044D01*
X174815490Y-54286230D01*
X174958999Y-54427052D01*
X175112091Y-54517457D01*
X175154786Y-54525333D01*
X175284510Y-54470710D01*
X175380953Y-54392285D01*
X175488906Y-54236386D01*
X175514000Y-54144333D01*
X175448279Y-53980494D01*
X175299133Y-53829034D01*
X175140075Y-53763333D01*
X174998523Y-53826842D01*
G36*
X173873852Y-53815709D02*
X173722325Y-53965617D01*
X173684409Y-54066409D01*
X173689965Y-54304006D01*
X173810403Y-54463970D01*
X173999581Y-54521067D01*
X174211360Y-54450063D01*
X174280286Y-54392285D01*
X174392314Y-54248433D01*
X174385969Y-54115259D01*
X174259911Y-53931290D01*
X174070351Y-53800204D01*
X173873852Y-53815709D01*
X173873852Y-53815709D01*
G37*
X173873852Y-53815709D02*
X173722325Y-53965617D01*
X173684409Y-54066409D01*
X173689965Y-54304006D01*
X173810403Y-54463970D01*
X173999581Y-54521067D01*
X174211360Y-54450063D01*
X174280286Y-54392285D01*
X174392314Y-54248433D01*
X174385969Y-54115259D01*
X174259911Y-53931290D01*
X174070351Y-53800204D01*
X173873852Y-53815709D01*
D12*
X169545000Y-42545000D03*
D13*
X186055000Y-48260000D03*
D14*
X183515000Y-48260000D03*
X180975000Y-48260000D03*
X178435000Y-48260000D03*
X175895000Y-48260000D03*
X173355000Y-48260000D03*
X170815000Y-48260000D03*
X168275000Y-48260000D03*
X165735000Y-48260000D03*
X163195000Y-48260000D03*
X160655000Y-48260000D03*
X158115000Y-48260000D03*
X155575000Y-48260000D03*
X153035000Y-48260000D03*
D15*
X69850000Y-53340000D03*
D16*
X69850000Y-63500000D03*
D15*
X72390000Y-53340000D03*
D16*
X72390000Y-63500000D03*
D15*
X74930000Y-53340000D03*
D16*
X74930000Y-63500000D03*
D15*
X77470000Y-53340000D03*
D16*
X77470000Y-63500000D03*
D15*
X80010000Y-53340000D03*
D16*
X80010000Y-63500000D03*
D15*
X82550000Y-53340000D03*
D16*
X82550000Y-63500000D03*
D15*
X85090000Y-53340000D03*
D16*
X85090000Y-63500000D03*
D15*
X87630000Y-53340000D03*
D16*
X87630000Y-63500000D03*
D15*
X90170000Y-53340000D03*
D16*
X90170000Y-63500000D03*
D15*
X92710000Y-53340000D03*
D16*
X92710000Y-63500000D03*
D15*
X95250000Y-53340000D03*
D16*
X95250000Y-63500000D03*
D15*
X97790000Y-53340000D03*
D16*
X97790000Y-63500000D03*
D15*
X100330000Y-53340000D03*
D16*
X100330000Y-63500000D03*
D15*
X102870000Y-53340000D03*
D16*
X102870000Y-63500000D03*
D15*
X105410000Y-53340000D03*
D16*
X105410000Y-63500000D03*
D15*
X107950000Y-53340000D03*
D16*
X107950000Y-63500000D03*
D15*
X110490000Y-53340000D03*
D16*
X110490000Y-63500000D03*
D15*
X113030000Y-53340000D03*
D16*
X113030000Y-63500000D03*
D15*
X115570000Y-53340000D03*
D16*
X115570000Y-63500000D03*
D15*
X118110000Y-53340000D03*
D16*
X118110000Y-63500000D03*
D15*
X120650000Y-53340000D03*
D16*
X120650000Y-63500000D03*
D15*
X123190000Y-53340000D03*
D16*
X123190000Y-63500000D03*
D15*
X125730000Y-53340000D03*
D16*
X125730000Y-63500000D03*
D15*
X128270000Y-53340000D03*
D16*
X128270000Y-63500000D03*
D15*
X130810000Y-53340000D03*
D16*
X130810000Y-63500000D03*
D15*
X133350000Y-53340000D03*
D16*
X133350000Y-63500000D03*
D15*
X135890000Y-53340000D03*
D16*
X135890000Y-63500000D03*
D15*
X138430000Y-53340000D03*
D16*
X138430000Y-63500000D03*
D15*
X140970000Y-53340000D03*
D16*
X140970000Y-63500000D03*
D15*
X143510000Y-53340000D03*
D16*
X143510000Y-63500000D03*
D13*
X186055000Y-63500000D03*
D14*
X183515000Y-63500000D03*
X180975000Y-63500000D03*
X178435000Y-63500000D03*
X175895000Y-63500000D03*
X173355000Y-63500000D03*
X170815000Y-63500000D03*
X168275000Y-63500000D03*
X165735000Y-63500000D03*
X163195000Y-63500000D03*
X160655000Y-63500000D03*
X158115000Y-63500000D03*
X155575000Y-63500000D03*
X153035000Y-63500000D03*
D17*
X147320000Y-46355000D03*
D18*
X147320000Y-48895000D03*
X147320000Y-51435000D03*
X147320000Y-53975000D03*
X147320000Y-56515000D03*
D19*
X69850000Y-49530000D03*
D20*
X69850000Y-46990000D03*
X72390000Y-49530000D03*
X72390000Y-46990000D03*
X74930000Y-49530000D03*
X74930000Y-46990000D03*
X77470000Y-49530000D03*
X77470000Y-46990000D03*
X80010000Y-49530000D03*
X80010000Y-46990000D03*
X82550000Y-49530000D03*
X82550000Y-46990000D03*
X85090000Y-49530000D03*
X85090000Y-46990000D03*
X87630000Y-49530000D03*
X87630000Y-46990000D03*
X90170000Y-49530000D03*
X90170000Y-46990000D03*
X92710000Y-49530000D03*
X92710000Y-46990000D03*
X95250000Y-49530000D03*
X95250000Y-46990000D03*
X97790000Y-49530000D03*
X97790000Y-46990000D03*
X100330000Y-49530000D03*
X100330000Y-46990000D03*
X102870000Y-49530000D03*
X102870000Y-46990000D03*
X105410000Y-49530000D03*
X105410000Y-46990000D03*
X107950000Y-49530000D03*
X107950000Y-46990000D03*
X110490000Y-49530000D03*
X110490000Y-46990000D03*
X113030000Y-49530000D03*
X113030000Y-46990000D03*
X115570000Y-49530000D03*
X115570000Y-46990000D03*
X118110000Y-49530000D03*
X118110000Y-46990000D03*
X120650000Y-49530000D03*
X120650000Y-46990000D03*
X123190000Y-49530000D03*
X123190000Y-46990000D03*
X125730000Y-49530000D03*
X125730000Y-46990000D03*
X128270000Y-49530000D03*
X128270000Y-46990000D03*
X130810000Y-49530000D03*
X130810000Y-46990000D03*
X133350000Y-49530000D03*
X133350000Y-46990000D03*
X135890000Y-49530000D03*
X135890000Y-46990000D03*
X138430000Y-49530000D03*
X138430000Y-46990000D03*
X140970000Y-49530000D03*
X140970000Y-46990000D03*
X143510000Y-49530000D03*
X143510000Y-46990000D03*
D12*
X181610000Y-42545000D03*
M02*
