G04 #@! TF.FileFunction,Copper,L1,Top,Signal*
%FSLAX46Y46*%
G04 Gerber Fmt 4.6, Leading zero omitted, Abs format (unit mm)*
G04 Created by KiCad (PCBNEW 4.0.2+e4-6225~38~ubuntu16.04.1-stable) date Thu 23 Jun 2016 09:21:40 PM CEST*
%MOMM*%
G01*
G04 APERTURE LIST*
%ADD10C,0.100000*%
%ADD11C,3.200000*%
%ADD12R,1.727200X2.032000*%
%ADD13O,1.727200X2.032000*%
%ADD14C,1.699260*%
%ADD15R,1.699260X1.699260*%
%ADD16R,2.032000X1.727200*%
%ADD17O,2.032000X1.727200*%
%ADD18R,1.727200X1.727200*%
%ADD19O,1.727200X1.727200*%
%ADD20C,0.914400*%
%ADD21C,0.406400*%
%ADD22C,0.508000*%
%ADD23C,0.254000*%
G04 APERTURE END LIST*
D10*
D11*
X169545000Y-42545000D03*
D12*
X186055000Y-48260000D03*
D13*
X183515000Y-48260000D03*
X180975000Y-48260000D03*
X178435000Y-48260000D03*
X175895000Y-48260000D03*
X173355000Y-48260000D03*
X170815000Y-48260000D03*
X168275000Y-48260000D03*
X165735000Y-48260000D03*
X163195000Y-48260000D03*
X160655000Y-48260000D03*
X158115000Y-48260000D03*
X155575000Y-48260000D03*
X153035000Y-48260000D03*
D14*
X69850000Y-53340000D03*
D15*
X69850000Y-63500000D03*
D14*
X72390000Y-53340000D03*
D15*
X72390000Y-63500000D03*
D14*
X74930000Y-53340000D03*
D15*
X74930000Y-63500000D03*
D14*
X77470000Y-53340000D03*
D15*
X77470000Y-63500000D03*
D14*
X80010000Y-53340000D03*
D15*
X80010000Y-63500000D03*
D14*
X82550000Y-53340000D03*
D15*
X82550000Y-63500000D03*
D14*
X85090000Y-53340000D03*
D15*
X85090000Y-63500000D03*
D14*
X87630000Y-53340000D03*
D15*
X87630000Y-63500000D03*
D14*
X90170000Y-53340000D03*
D15*
X90170000Y-63500000D03*
D14*
X92710000Y-53340000D03*
D15*
X92710000Y-63500000D03*
D14*
X95250000Y-53340000D03*
D15*
X95250000Y-63500000D03*
D14*
X97790000Y-53340000D03*
D15*
X97790000Y-63500000D03*
D14*
X100330000Y-53340000D03*
D15*
X100330000Y-63500000D03*
D14*
X102870000Y-53340000D03*
D15*
X102870000Y-63500000D03*
D14*
X105410000Y-53340000D03*
D15*
X105410000Y-63500000D03*
D14*
X107950000Y-53340000D03*
D15*
X107950000Y-63500000D03*
D14*
X110490000Y-53340000D03*
D15*
X110490000Y-63500000D03*
D14*
X113030000Y-53340000D03*
D15*
X113030000Y-63500000D03*
D14*
X115570000Y-53340000D03*
D15*
X115570000Y-63500000D03*
D14*
X118110000Y-53340000D03*
D15*
X118110000Y-63500000D03*
D14*
X120650000Y-53340000D03*
D15*
X120650000Y-63500000D03*
D14*
X123190000Y-53340000D03*
D15*
X123190000Y-63500000D03*
D14*
X125730000Y-53340000D03*
D15*
X125730000Y-63500000D03*
D14*
X128270000Y-53340000D03*
D15*
X128270000Y-63500000D03*
D14*
X130810000Y-53340000D03*
D15*
X130810000Y-63500000D03*
D14*
X133350000Y-53340000D03*
D15*
X133350000Y-63500000D03*
D14*
X135890000Y-53340000D03*
D15*
X135890000Y-63500000D03*
D14*
X138430000Y-53340000D03*
D15*
X138430000Y-63500000D03*
D14*
X140970000Y-53340000D03*
D15*
X140970000Y-63500000D03*
D14*
X143510000Y-53340000D03*
D15*
X143510000Y-63500000D03*
D12*
X186055000Y-63500000D03*
D13*
X183515000Y-63500000D03*
X180975000Y-63500000D03*
X178435000Y-63500000D03*
X175895000Y-63500000D03*
X173355000Y-63500000D03*
X170815000Y-63500000D03*
X168275000Y-63500000D03*
X165735000Y-63500000D03*
X163195000Y-63500000D03*
X160655000Y-63500000D03*
X158115000Y-63500000D03*
X155575000Y-63500000D03*
X153035000Y-63500000D03*
D16*
X147320000Y-46355000D03*
D17*
X147320000Y-48895000D03*
X147320000Y-51435000D03*
X147320000Y-53975000D03*
X147320000Y-56515000D03*
D18*
X69850000Y-49530000D03*
D19*
X69850000Y-46990000D03*
X72390000Y-49530000D03*
X72390000Y-46990000D03*
X74930000Y-49530000D03*
X74930000Y-46990000D03*
X77470000Y-49530000D03*
X77470000Y-46990000D03*
X80010000Y-49530000D03*
X80010000Y-46990000D03*
X82550000Y-49530000D03*
X82550000Y-46990000D03*
X85090000Y-49530000D03*
X85090000Y-46990000D03*
X87630000Y-49530000D03*
X87630000Y-46990000D03*
X90170000Y-49530000D03*
X90170000Y-46990000D03*
X92710000Y-49530000D03*
X92710000Y-46990000D03*
X95250000Y-49530000D03*
X95250000Y-46990000D03*
X97790000Y-49530000D03*
X97790000Y-46990000D03*
X100330000Y-49530000D03*
X100330000Y-46990000D03*
X102870000Y-49530000D03*
X102870000Y-46990000D03*
X105410000Y-49530000D03*
X105410000Y-46990000D03*
X107950000Y-49530000D03*
X107950000Y-46990000D03*
X110490000Y-49530000D03*
X110490000Y-46990000D03*
X113030000Y-49530000D03*
X113030000Y-46990000D03*
X115570000Y-49530000D03*
X115570000Y-46990000D03*
X118110000Y-49530000D03*
X118110000Y-46990000D03*
X120650000Y-49530000D03*
X120650000Y-46990000D03*
X123190000Y-49530000D03*
X123190000Y-46990000D03*
X125730000Y-49530000D03*
X125730000Y-46990000D03*
X128270000Y-49530000D03*
X128270000Y-46990000D03*
X130810000Y-49530000D03*
X130810000Y-46990000D03*
X133350000Y-49530000D03*
X133350000Y-46990000D03*
X135890000Y-49530000D03*
X135890000Y-46990000D03*
X138430000Y-49530000D03*
X138430000Y-46990000D03*
X140970000Y-49530000D03*
X140970000Y-46990000D03*
X143510000Y-49530000D03*
X143510000Y-46990000D03*
D11*
X181610000Y-42545000D03*
D20*
X133350000Y-44450000D03*
X120650000Y-44450000D03*
X107950000Y-44450000D03*
X95250000Y-44450000D03*
X82550000Y-44450000D03*
X69850000Y-44450000D03*
X135890000Y-43180000D03*
X123190000Y-43180000D03*
X110490000Y-43180000D03*
X97790000Y-43180000D03*
X85090000Y-43180000D03*
X72390000Y-43180000D03*
X138430000Y-41910000D03*
X125730000Y-41910000D03*
X113030000Y-41910000D03*
X100330000Y-41910000D03*
X87630000Y-41910000D03*
X74930000Y-41910000D03*
X140970000Y-40640000D03*
X128270000Y-40640000D03*
X115570000Y-40640000D03*
X102870000Y-40640000D03*
X90170000Y-40640000D03*
X77470000Y-40640000D03*
X143510000Y-39370000D03*
X130810000Y-39370000D03*
X118110000Y-39370000D03*
X105410000Y-39370000D03*
X92710000Y-39370000D03*
X80010000Y-39370000D03*
D21*
X69850000Y-53340000D02*
X69850000Y-49530000D01*
X80010000Y-63500000D02*
X80010000Y-60325000D01*
X80010000Y-60325000D02*
X81915000Y-58420000D01*
X81915000Y-58420000D02*
X163347400Y-58420000D01*
X163347400Y-58420000D02*
X168275000Y-63347600D01*
X168275000Y-63347600D02*
X168275000Y-63500000D01*
X72390000Y-63500000D02*
X69850000Y-63500000D01*
X74930000Y-63500000D02*
X72390000Y-63500000D01*
X77470000Y-63500000D02*
X74930000Y-63500000D01*
X80010000Y-63500000D02*
X77470000Y-63500000D01*
X72390000Y-53340000D02*
X72390000Y-49530000D01*
X74930000Y-49530000D02*
X74930000Y-53340000D01*
X77470000Y-53340000D02*
X77470000Y-49530000D01*
X80010000Y-53340000D02*
X80010000Y-49530000D01*
X82550000Y-53340000D02*
X82550000Y-49530000D01*
X92710000Y-63500000D02*
X92710000Y-60960000D01*
X92710000Y-60960000D02*
X94615000Y-59055000D01*
X94615000Y-59055000D02*
X161442400Y-59055000D01*
X165735000Y-63347600D02*
X165735000Y-63500000D01*
X161442400Y-59055000D02*
X165735000Y-63347600D01*
X85090000Y-63500000D02*
X82550000Y-63500000D01*
X85090000Y-63500000D02*
X87630000Y-63500000D01*
X88900000Y-63486030D02*
X88886030Y-63500000D01*
X87630000Y-63500000D02*
X88886030Y-63500000D01*
X88900000Y-63500000D02*
X90170000Y-63500000D01*
X92710000Y-63500000D02*
X88900000Y-63500000D01*
X85090000Y-50800000D02*
X85090000Y-49530000D01*
X85090000Y-53340000D02*
X85090000Y-50800000D01*
X87630000Y-53340000D02*
X87630000Y-49530000D01*
X90170000Y-53340000D02*
X90170000Y-49530000D01*
X92710000Y-53340000D02*
X92710000Y-49530000D01*
D22*
X95250000Y-49530000D02*
X95250000Y-53340000D01*
D21*
X105410000Y-63500000D02*
X105410000Y-60960000D01*
X105410000Y-60960000D02*
X106680000Y-59690000D01*
X106680000Y-59690000D02*
X159537400Y-59690000D01*
X159537400Y-59690000D02*
X163195000Y-63347600D01*
X163195000Y-63347600D02*
X163195000Y-63500000D01*
X95250000Y-63500000D02*
X97790000Y-63500000D01*
X97790000Y-63500000D02*
X100330000Y-63500000D01*
X100330000Y-63500000D02*
X102870000Y-63500000D01*
X105410000Y-63500000D02*
X102870000Y-63500000D01*
D22*
X97790000Y-49530000D02*
X97790000Y-53340000D01*
X100330000Y-53340000D02*
X100330000Y-49530000D01*
X102870000Y-53340000D02*
X102870000Y-49530000D01*
X105410000Y-53340000D02*
X105410000Y-49530000D01*
X107950000Y-53340000D02*
X107950000Y-49530000D01*
D21*
X118110000Y-63500000D02*
X118110000Y-62243970D01*
X118110000Y-62243970D02*
X120028970Y-60325000D01*
X120028970Y-60325000D02*
X157632400Y-60325000D01*
X157632400Y-60325000D02*
X160655000Y-63347600D01*
X160655000Y-63347600D02*
X160655000Y-63500000D01*
X107950000Y-63500000D02*
X110490000Y-63500000D01*
X113030000Y-63500000D02*
X110490000Y-63500000D01*
X115570000Y-63500000D02*
X113030000Y-63500000D01*
X118110000Y-63500000D02*
X115570000Y-63500000D01*
D22*
X110490000Y-53340000D02*
X110490000Y-49530000D01*
X113030000Y-53340000D02*
X113030000Y-49530000D01*
X115570000Y-53340000D02*
X115570000Y-49530000D01*
X118110000Y-53340000D02*
X118110000Y-49530000D01*
X120650000Y-49530000D02*
X120650000Y-53340000D01*
D21*
X153822400Y-60960000D02*
X156845000Y-60960000D01*
X153822400Y-60960000D02*
X132093970Y-60960000D01*
X132093970Y-60960000D02*
X130810000Y-62243970D01*
X130810000Y-62243970D02*
X130810000Y-63500000D01*
X120650000Y-63500000D02*
X123190000Y-63500000D01*
X124460000Y-63500000D02*
X125730000Y-63500000D01*
X123190000Y-63500000D02*
X124460000Y-63500000D01*
X128270000Y-63500000D02*
X125730000Y-63500000D01*
X130810000Y-63500000D02*
X128270000Y-63500000D01*
X158115000Y-63500000D02*
X158115000Y-62077600D01*
X158115000Y-62077600D02*
X156997400Y-60960000D01*
D22*
X123190000Y-49530000D02*
X123190000Y-53340000D01*
X125730000Y-49530000D02*
X125730000Y-53340000D01*
X128270000Y-49530000D02*
X128270000Y-53340000D01*
X130810000Y-49530000D02*
X130810000Y-53340000D01*
X133350000Y-49530000D02*
X133350000Y-53340000D01*
D21*
X149225000Y-63500000D02*
X146050000Y-63500000D01*
X143510000Y-63500000D02*
X146050000Y-63500000D01*
X149225000Y-63500000D02*
X151130000Y-61595000D01*
X151130000Y-61595000D02*
X155092400Y-61595000D01*
X155092400Y-61595000D02*
X155575000Y-62077600D01*
X135890000Y-63500000D02*
X133350000Y-63500000D01*
X138430000Y-63500000D02*
X135890000Y-63500000D01*
X140970000Y-63500000D02*
X138430000Y-63500000D01*
X143510000Y-63500000D02*
X140970000Y-63500000D01*
X155575000Y-62077600D02*
X155575000Y-63500000D01*
D22*
X135890000Y-49530000D02*
X135890000Y-53340000D01*
X138430000Y-49530000D02*
X138430000Y-53340000D01*
X140970000Y-49530000D02*
X140970000Y-53340000D01*
X143510000Y-49530000D02*
X143510000Y-53340000D01*
D21*
X147320000Y-46355000D02*
X185572400Y-46355000D01*
X185572400Y-46355000D02*
X186055000Y-46837600D01*
X186055000Y-46837600D02*
X186055000Y-48260000D01*
X151130000Y-50800000D02*
X149225000Y-48895000D01*
X149225000Y-48895000D02*
X147320000Y-48895000D01*
X173507400Y-50800000D02*
X151130000Y-50800000D01*
X186055000Y-63500000D02*
X186055000Y-63347600D01*
X186055000Y-63347600D02*
X173507400Y-50800000D01*
D22*
X133350000Y-46990000D02*
X133350000Y-44450000D01*
X120650000Y-46990000D02*
X120650000Y-44450000D01*
X107950000Y-46990000D02*
X107950000Y-44450000D01*
X95250000Y-46990000D02*
X95250000Y-44450000D01*
X82550000Y-46990000D02*
X82550000Y-44450000D01*
X69850000Y-46990000D02*
X69850000Y-44450000D01*
X135890000Y-46990000D02*
X135890000Y-43180000D01*
X123190000Y-46990000D02*
X123190000Y-43180000D01*
X110490000Y-46990000D02*
X110490000Y-43180000D01*
X97790000Y-46990000D02*
X97790000Y-43180000D01*
X85090000Y-46990000D02*
X85090000Y-43180000D01*
X72390000Y-46990000D02*
X72390000Y-43180000D01*
X138430000Y-46990000D02*
X138430000Y-41910000D01*
X125730000Y-46990000D02*
X125730000Y-41910000D01*
X113030000Y-46990000D02*
X113030000Y-41910000D01*
X100330000Y-46990000D02*
X100330000Y-41910000D01*
X87630000Y-46990000D02*
X87630000Y-41910000D01*
X74930000Y-46990000D02*
X74930000Y-41910000D01*
X140970000Y-46990000D02*
X140970000Y-40640000D01*
X128270000Y-46990000D02*
X128270000Y-40640000D01*
X115570000Y-46990000D02*
X115570000Y-40640000D01*
X102870000Y-46990000D02*
X102870000Y-40640000D01*
X90170000Y-46990000D02*
X90170000Y-40640000D01*
X77470000Y-46990000D02*
X77470000Y-40640000D01*
X143510000Y-46990000D02*
X143510000Y-39370000D01*
X130810000Y-46990000D02*
X130810000Y-39370000D01*
X118110000Y-46990000D02*
X118110000Y-39370000D01*
X105410000Y-46990000D02*
X105410000Y-39370000D01*
X92710000Y-46990000D02*
X92710000Y-39370000D01*
X80010000Y-46990000D02*
X80010000Y-39370000D01*
D21*
X147320000Y-51435000D02*
X149225000Y-51435000D01*
X149225000Y-51435000D02*
X149860000Y-52070000D01*
X149860000Y-52070000D02*
X170815000Y-52070000D01*
X170815000Y-52070000D02*
X175895000Y-57150000D01*
X175895000Y-57150000D02*
X175895000Y-63500000D01*
X173355000Y-63500000D02*
X173355000Y-59690000D01*
X173355000Y-59690000D02*
X167640000Y-53975000D01*
X167640000Y-53975000D02*
X147320000Y-53975000D01*
X147320000Y-56515000D02*
X167005000Y-56515000D01*
X167005000Y-56515000D02*
X170815000Y-60325000D01*
X170815000Y-60325000D02*
X170815000Y-63500000D01*
D23*
G36*
X187250000Y-46693952D02*
X187044909Y-46609000D01*
X186340750Y-46609000D01*
X186182000Y-46767750D01*
X186182000Y-48133000D01*
X186202000Y-48133000D01*
X186202000Y-48387000D01*
X186182000Y-48387000D01*
X186182000Y-49752250D01*
X186340750Y-49911000D01*
X187044909Y-49911000D01*
X187250000Y-49826048D01*
X187250000Y-61941896D01*
X187170490Y-61887569D01*
X186918600Y-61836560D01*
X185729354Y-61836560D01*
X174100097Y-50207303D01*
X173828166Y-50025604D01*
X173507400Y-49961800D01*
X151477194Y-49961800D01*
X149817697Y-48302303D01*
X149545766Y-48120604D01*
X149317781Y-48075255D01*
X151536400Y-48075255D01*
X151536400Y-48444745D01*
X151650474Y-49018234D01*
X151975330Y-49504415D01*
X152461511Y-49829271D01*
X153035000Y-49943345D01*
X153608489Y-49829271D01*
X154094670Y-49504415D01*
X154305000Y-49189634D01*
X154515330Y-49504415D01*
X155001511Y-49829271D01*
X155575000Y-49943345D01*
X156148489Y-49829271D01*
X156634670Y-49504415D01*
X156845000Y-49189634D01*
X157055330Y-49504415D01*
X157541511Y-49829271D01*
X158115000Y-49943345D01*
X158688489Y-49829271D01*
X159174670Y-49504415D01*
X159385000Y-49189634D01*
X159595330Y-49504415D01*
X160081511Y-49829271D01*
X160655000Y-49943345D01*
X161228489Y-49829271D01*
X161714670Y-49504415D01*
X161925000Y-49189634D01*
X162135330Y-49504415D01*
X162621511Y-49829271D01*
X163195000Y-49943345D01*
X163768489Y-49829271D01*
X164254670Y-49504415D01*
X164465000Y-49189634D01*
X164675330Y-49504415D01*
X165161511Y-49829271D01*
X165735000Y-49943345D01*
X166308489Y-49829271D01*
X166794670Y-49504415D01*
X167005000Y-49189634D01*
X167215330Y-49504415D01*
X167701511Y-49829271D01*
X168275000Y-49943345D01*
X168848489Y-49829271D01*
X169334670Y-49504415D01*
X169545000Y-49189634D01*
X169755330Y-49504415D01*
X170241511Y-49829271D01*
X170815000Y-49943345D01*
X171388489Y-49829271D01*
X171874670Y-49504415D01*
X172085000Y-49189634D01*
X172295330Y-49504415D01*
X172781511Y-49829271D01*
X173355000Y-49943345D01*
X173928489Y-49829271D01*
X174414670Y-49504415D01*
X174625000Y-49189634D01*
X174835330Y-49504415D01*
X175321511Y-49829271D01*
X175895000Y-49943345D01*
X176468489Y-49829271D01*
X176954670Y-49504415D01*
X177165000Y-49189634D01*
X177375330Y-49504415D01*
X177861511Y-49829271D01*
X178435000Y-49943345D01*
X179008489Y-49829271D01*
X179494670Y-49504415D01*
X179705000Y-49189634D01*
X179915330Y-49504415D01*
X180401511Y-49829271D01*
X180975000Y-49943345D01*
X181548489Y-49829271D01*
X182034670Y-49504415D01*
X182245000Y-49189634D01*
X182455330Y-49504415D01*
X182941511Y-49829271D01*
X183515000Y-49943345D01*
X184088489Y-49829271D01*
X184574670Y-49504415D01*
X184589500Y-49482220D01*
X184653073Y-49635699D01*
X184831702Y-49814327D01*
X185065091Y-49911000D01*
X185769250Y-49911000D01*
X185928000Y-49752250D01*
X185928000Y-48387000D01*
X185908000Y-48387000D01*
X185908000Y-48133000D01*
X185928000Y-48133000D01*
X185928000Y-46767750D01*
X185769250Y-46609000D01*
X185065091Y-46609000D01*
X184831702Y-46705673D01*
X184653073Y-46884301D01*
X184589500Y-47037780D01*
X184574670Y-47015585D01*
X184088489Y-46690729D01*
X183515000Y-46576655D01*
X182941511Y-46690729D01*
X182455330Y-47015585D01*
X182245000Y-47330366D01*
X182034670Y-47015585D01*
X181548489Y-46690729D01*
X180975000Y-46576655D01*
X180401511Y-46690729D01*
X179915330Y-47015585D01*
X179705000Y-47330366D01*
X179494670Y-47015585D01*
X179008489Y-46690729D01*
X178435000Y-46576655D01*
X177861511Y-46690729D01*
X177375330Y-47015585D01*
X177165000Y-47330366D01*
X176954670Y-47015585D01*
X176468489Y-46690729D01*
X175895000Y-46576655D01*
X175321511Y-46690729D01*
X174835330Y-47015585D01*
X174625000Y-47330366D01*
X174414670Y-47015585D01*
X173928489Y-46690729D01*
X173355000Y-46576655D01*
X172781511Y-46690729D01*
X172295330Y-47015585D01*
X172085000Y-47330366D01*
X171874670Y-47015585D01*
X171388489Y-46690729D01*
X170815000Y-46576655D01*
X170241511Y-46690729D01*
X169755330Y-47015585D01*
X169545000Y-47330366D01*
X169334670Y-47015585D01*
X168848489Y-46690729D01*
X168275000Y-46576655D01*
X167701511Y-46690729D01*
X167215330Y-47015585D01*
X167005000Y-47330366D01*
X166794670Y-47015585D01*
X166308489Y-46690729D01*
X165735000Y-46576655D01*
X165161511Y-46690729D01*
X164675330Y-47015585D01*
X164465000Y-47330366D01*
X164254670Y-47015585D01*
X163768489Y-46690729D01*
X163195000Y-46576655D01*
X162621511Y-46690729D01*
X162135330Y-47015585D01*
X161925000Y-47330366D01*
X161714670Y-47015585D01*
X161228489Y-46690729D01*
X160655000Y-46576655D01*
X160081511Y-46690729D01*
X159595330Y-47015585D01*
X159385000Y-47330366D01*
X159174670Y-47015585D01*
X158688489Y-46690729D01*
X158115000Y-46576655D01*
X157541511Y-46690729D01*
X157055330Y-47015585D01*
X156845000Y-47330366D01*
X156634670Y-47015585D01*
X156148489Y-46690729D01*
X155575000Y-46576655D01*
X155001511Y-46690729D01*
X154515330Y-47015585D01*
X154305000Y-47330366D01*
X154094670Y-47015585D01*
X153608489Y-46690729D01*
X153035000Y-46576655D01*
X152461511Y-46690729D01*
X151975330Y-47015585D01*
X151650474Y-47501766D01*
X151536400Y-48075255D01*
X149317781Y-48075255D01*
X149225000Y-48056800D01*
X148712397Y-48056800D01*
X148564415Y-47835330D01*
X148542220Y-47820500D01*
X148695698Y-47756927D01*
X148874327Y-47578299D01*
X148971000Y-47344910D01*
X148971000Y-46640750D01*
X148812250Y-46482000D01*
X147447000Y-46482000D01*
X147447000Y-46502000D01*
X147193000Y-46502000D01*
X147193000Y-46482000D01*
X145827750Y-46482000D01*
X145669000Y-46640750D01*
X145669000Y-47344910D01*
X145765673Y-47578299D01*
X145944302Y-47756927D01*
X146097780Y-47820500D01*
X146075585Y-47835330D01*
X145750729Y-48321511D01*
X145636655Y-48895000D01*
X145750729Y-49468489D01*
X146075585Y-49954670D01*
X146390366Y-50165000D01*
X146075585Y-50375330D01*
X145750729Y-50861511D01*
X145636655Y-51435000D01*
X145750729Y-52008489D01*
X146075585Y-52494670D01*
X146390366Y-52705000D01*
X146075585Y-52915330D01*
X145750729Y-53401511D01*
X145636655Y-53975000D01*
X145750729Y-54548489D01*
X146075585Y-55034670D01*
X146390366Y-55245000D01*
X146075585Y-55455330D01*
X145750729Y-55941511D01*
X145636655Y-56515000D01*
X145750729Y-57088489D01*
X146075585Y-57574670D01*
X146086256Y-57581800D01*
X81915000Y-57581800D01*
X81594235Y-57645604D01*
X81322303Y-57827303D01*
X79417303Y-59732303D01*
X79235604Y-60004234D01*
X79180215Y-60282697D01*
X79171800Y-60325000D01*
X79171800Y-62002930D01*
X79160370Y-62002930D01*
X78925053Y-62047208D01*
X78737912Y-62167630D01*
X78571520Y-62053939D01*
X78319630Y-62002930D01*
X76620370Y-62002930D01*
X76385053Y-62047208D01*
X76197912Y-62167630D01*
X76031520Y-62053939D01*
X75779630Y-62002930D01*
X74080370Y-62002930D01*
X73845053Y-62047208D01*
X73657912Y-62167630D01*
X73491520Y-62053939D01*
X73239630Y-62002930D01*
X71540370Y-62002930D01*
X71305053Y-62047208D01*
X71117912Y-62167630D01*
X70951520Y-62053939D01*
X70699630Y-62002930D01*
X69000370Y-62002930D01*
X68765053Y-62047208D01*
X68655000Y-62118025D01*
X68655000Y-54244331D01*
X69007926Y-54597874D01*
X69553393Y-54824372D01*
X70144016Y-54824888D01*
X70689877Y-54599342D01*
X71107874Y-54182074D01*
X71119749Y-54153476D01*
X71130658Y-54179877D01*
X71547926Y-54597874D01*
X72093393Y-54824372D01*
X72684016Y-54824888D01*
X73229877Y-54599342D01*
X73647874Y-54182074D01*
X73659749Y-54153476D01*
X73670658Y-54179877D01*
X74087926Y-54597874D01*
X74633393Y-54824372D01*
X75224016Y-54824888D01*
X75769877Y-54599342D01*
X76187874Y-54182074D01*
X76199749Y-54153476D01*
X76210658Y-54179877D01*
X76627926Y-54597874D01*
X77173393Y-54824372D01*
X77764016Y-54824888D01*
X78309877Y-54599342D01*
X78727874Y-54182074D01*
X78739749Y-54153476D01*
X78750658Y-54179877D01*
X79167926Y-54597874D01*
X79713393Y-54824372D01*
X80304016Y-54824888D01*
X80849877Y-54599342D01*
X81267874Y-54182074D01*
X81279749Y-54153476D01*
X81290658Y-54179877D01*
X81707926Y-54597874D01*
X82253393Y-54824372D01*
X82844016Y-54824888D01*
X83389877Y-54599342D01*
X83807874Y-54182074D01*
X83819749Y-54153476D01*
X83830658Y-54179877D01*
X84247926Y-54597874D01*
X84793393Y-54824372D01*
X85384016Y-54824888D01*
X85929877Y-54599342D01*
X86347874Y-54182074D01*
X86359749Y-54153476D01*
X86370658Y-54179877D01*
X86787926Y-54597874D01*
X87333393Y-54824372D01*
X87924016Y-54824888D01*
X88469877Y-54599342D01*
X88887874Y-54182074D01*
X88899749Y-54153476D01*
X88910658Y-54179877D01*
X89327926Y-54597874D01*
X89873393Y-54824372D01*
X90464016Y-54824888D01*
X91009877Y-54599342D01*
X91427874Y-54182074D01*
X91439749Y-54153476D01*
X91450658Y-54179877D01*
X91867926Y-54597874D01*
X92413393Y-54824372D01*
X93004016Y-54824888D01*
X93549877Y-54599342D01*
X93967874Y-54182074D01*
X93979749Y-54153476D01*
X93990658Y-54179877D01*
X94407926Y-54597874D01*
X94953393Y-54824372D01*
X95544016Y-54824888D01*
X96089877Y-54599342D01*
X96507874Y-54182074D01*
X96519749Y-54153476D01*
X96530658Y-54179877D01*
X96947926Y-54597874D01*
X97493393Y-54824372D01*
X98084016Y-54824888D01*
X98629877Y-54599342D01*
X99047874Y-54182074D01*
X99059749Y-54153476D01*
X99070658Y-54179877D01*
X99487926Y-54597874D01*
X100033393Y-54824372D01*
X100624016Y-54824888D01*
X101169877Y-54599342D01*
X101587874Y-54182074D01*
X101599749Y-54153476D01*
X101610658Y-54179877D01*
X102027926Y-54597874D01*
X102573393Y-54824372D01*
X103164016Y-54824888D01*
X103709877Y-54599342D01*
X104127874Y-54182074D01*
X104139749Y-54153476D01*
X104150658Y-54179877D01*
X104567926Y-54597874D01*
X105113393Y-54824372D01*
X105704016Y-54824888D01*
X106249877Y-54599342D01*
X106667874Y-54182074D01*
X106679749Y-54153476D01*
X106690658Y-54179877D01*
X107107926Y-54597874D01*
X107653393Y-54824372D01*
X108244016Y-54824888D01*
X108789877Y-54599342D01*
X109207874Y-54182074D01*
X109219749Y-54153476D01*
X109230658Y-54179877D01*
X109647926Y-54597874D01*
X110193393Y-54824372D01*
X110784016Y-54824888D01*
X111329877Y-54599342D01*
X111747874Y-54182074D01*
X111759749Y-54153476D01*
X111770658Y-54179877D01*
X112187926Y-54597874D01*
X112733393Y-54824372D01*
X113324016Y-54824888D01*
X113869877Y-54599342D01*
X114287874Y-54182074D01*
X114299749Y-54153476D01*
X114310658Y-54179877D01*
X114727926Y-54597874D01*
X115273393Y-54824372D01*
X115864016Y-54824888D01*
X116409877Y-54599342D01*
X116827874Y-54182074D01*
X116839749Y-54153476D01*
X116850658Y-54179877D01*
X117267926Y-54597874D01*
X117813393Y-54824372D01*
X118404016Y-54824888D01*
X118949877Y-54599342D01*
X119367874Y-54182074D01*
X119379749Y-54153476D01*
X119390658Y-54179877D01*
X119807926Y-54597874D01*
X120353393Y-54824372D01*
X120944016Y-54824888D01*
X121489877Y-54599342D01*
X121907874Y-54182074D01*
X121919749Y-54153476D01*
X121930658Y-54179877D01*
X122347926Y-54597874D01*
X122893393Y-54824372D01*
X123484016Y-54824888D01*
X124029877Y-54599342D01*
X124447874Y-54182074D01*
X124459749Y-54153476D01*
X124470658Y-54179877D01*
X124887926Y-54597874D01*
X125433393Y-54824372D01*
X126024016Y-54824888D01*
X126569877Y-54599342D01*
X126987874Y-54182074D01*
X126999749Y-54153476D01*
X127010658Y-54179877D01*
X127427926Y-54597874D01*
X127973393Y-54824372D01*
X128564016Y-54824888D01*
X129109877Y-54599342D01*
X129527874Y-54182074D01*
X129539749Y-54153476D01*
X129550658Y-54179877D01*
X129967926Y-54597874D01*
X130513393Y-54824372D01*
X131104016Y-54824888D01*
X131649877Y-54599342D01*
X132067874Y-54182074D01*
X132079749Y-54153476D01*
X132090658Y-54179877D01*
X132507926Y-54597874D01*
X133053393Y-54824372D01*
X133644016Y-54824888D01*
X134189877Y-54599342D01*
X134607874Y-54182074D01*
X134619749Y-54153476D01*
X134630658Y-54179877D01*
X135047926Y-54597874D01*
X135593393Y-54824372D01*
X136184016Y-54824888D01*
X136729877Y-54599342D01*
X137147874Y-54182074D01*
X137159749Y-54153476D01*
X137170658Y-54179877D01*
X137587926Y-54597874D01*
X138133393Y-54824372D01*
X138724016Y-54824888D01*
X139269877Y-54599342D01*
X139687874Y-54182074D01*
X139699749Y-54153476D01*
X139710658Y-54179877D01*
X140127926Y-54597874D01*
X140673393Y-54824372D01*
X141264016Y-54824888D01*
X141809877Y-54599342D01*
X142227874Y-54182074D01*
X142239749Y-54153476D01*
X142250658Y-54179877D01*
X142667926Y-54597874D01*
X143213393Y-54824372D01*
X143804016Y-54824888D01*
X144349877Y-54599342D01*
X144767874Y-54182074D01*
X144994372Y-53636607D01*
X144994888Y-53045984D01*
X144769342Y-52500123D01*
X144399000Y-52129134D01*
X144399000Y-50733067D01*
X144569670Y-50619029D01*
X144894526Y-50132848D01*
X145008600Y-49559359D01*
X145008600Y-49500641D01*
X144894526Y-48927152D01*
X144569670Y-48440971D01*
X144298828Y-48260000D01*
X144569670Y-48079029D01*
X144894526Y-47592848D01*
X145008600Y-47019359D01*
X145008600Y-46960641D01*
X144894526Y-46387152D01*
X144569670Y-45900971D01*
X144399000Y-45786933D01*
X144399000Y-45365090D01*
X145669000Y-45365090D01*
X145669000Y-46069250D01*
X145827750Y-46228000D01*
X147193000Y-46228000D01*
X147193000Y-45015150D01*
X147447000Y-45015150D01*
X147447000Y-46228000D01*
X148812250Y-46228000D01*
X148971000Y-46069250D01*
X148971000Y-45365090D01*
X148874327Y-45131701D01*
X148695698Y-44953073D01*
X148462309Y-44856400D01*
X147605750Y-44856400D01*
X147447000Y-45015150D01*
X147193000Y-45015150D01*
X147034250Y-44856400D01*
X146177691Y-44856400D01*
X145944302Y-44953073D01*
X145765673Y-45131701D01*
X145669000Y-45365090D01*
X144399000Y-45365090D01*
X144399000Y-42987619D01*
X167309613Y-42987619D01*
X167649155Y-43809372D01*
X168277321Y-44438636D01*
X169098481Y-44779611D01*
X169987619Y-44780387D01*
X170809372Y-44440845D01*
X171438636Y-43812679D01*
X171779611Y-42991519D01*
X171779614Y-42987619D01*
X179374613Y-42987619D01*
X179714155Y-43809372D01*
X180342321Y-44438636D01*
X181163481Y-44779611D01*
X182052619Y-44780387D01*
X182874372Y-44440845D01*
X183503636Y-43812679D01*
X183844611Y-42991519D01*
X183845387Y-42102381D01*
X183505845Y-41280628D01*
X182877679Y-40651364D01*
X182056519Y-40310389D01*
X181167381Y-40309613D01*
X180345628Y-40649155D01*
X179716364Y-41277321D01*
X179375389Y-42098481D01*
X179374613Y-42987619D01*
X171779614Y-42987619D01*
X171780387Y-42102381D01*
X171440845Y-41280628D01*
X170812679Y-40651364D01*
X169991519Y-40310389D01*
X169102381Y-40309613D01*
X168280628Y-40649155D01*
X167651364Y-41277321D01*
X167310389Y-42098481D01*
X167309613Y-42987619D01*
X144399000Y-42987619D01*
X144399000Y-40025808D01*
X144435382Y-39989489D01*
X144602010Y-39588205D01*
X144602389Y-39153701D01*
X144460375Y-38810000D01*
X187250000Y-38810000D01*
X187250000Y-46693952D01*
X187250000Y-46693952D01*
G37*
X187250000Y-46693952D02*
X187044909Y-46609000D01*
X186340750Y-46609000D01*
X186182000Y-46767750D01*
X186182000Y-48133000D01*
X186202000Y-48133000D01*
X186202000Y-48387000D01*
X186182000Y-48387000D01*
X186182000Y-49752250D01*
X186340750Y-49911000D01*
X187044909Y-49911000D01*
X187250000Y-49826048D01*
X187250000Y-61941896D01*
X187170490Y-61887569D01*
X186918600Y-61836560D01*
X185729354Y-61836560D01*
X174100097Y-50207303D01*
X173828166Y-50025604D01*
X173507400Y-49961800D01*
X151477194Y-49961800D01*
X149817697Y-48302303D01*
X149545766Y-48120604D01*
X149317781Y-48075255D01*
X151536400Y-48075255D01*
X151536400Y-48444745D01*
X151650474Y-49018234D01*
X151975330Y-49504415D01*
X152461511Y-49829271D01*
X153035000Y-49943345D01*
X153608489Y-49829271D01*
X154094670Y-49504415D01*
X154305000Y-49189634D01*
X154515330Y-49504415D01*
X155001511Y-49829271D01*
X155575000Y-49943345D01*
X156148489Y-49829271D01*
X156634670Y-49504415D01*
X156845000Y-49189634D01*
X157055330Y-49504415D01*
X157541511Y-49829271D01*
X158115000Y-49943345D01*
X158688489Y-49829271D01*
X159174670Y-49504415D01*
X159385000Y-49189634D01*
X159595330Y-49504415D01*
X160081511Y-49829271D01*
X160655000Y-49943345D01*
X161228489Y-49829271D01*
X161714670Y-49504415D01*
X161925000Y-49189634D01*
X162135330Y-49504415D01*
X162621511Y-49829271D01*
X163195000Y-49943345D01*
X163768489Y-49829271D01*
X164254670Y-49504415D01*
X164465000Y-49189634D01*
X164675330Y-49504415D01*
X165161511Y-49829271D01*
X165735000Y-49943345D01*
X166308489Y-49829271D01*
X166794670Y-49504415D01*
X167005000Y-49189634D01*
X167215330Y-49504415D01*
X167701511Y-49829271D01*
X168275000Y-49943345D01*
X168848489Y-49829271D01*
X169334670Y-49504415D01*
X169545000Y-49189634D01*
X169755330Y-49504415D01*
X170241511Y-49829271D01*
X170815000Y-49943345D01*
X171388489Y-49829271D01*
X171874670Y-49504415D01*
X172085000Y-49189634D01*
X172295330Y-49504415D01*
X172781511Y-49829271D01*
X173355000Y-49943345D01*
X173928489Y-49829271D01*
X174414670Y-49504415D01*
X174625000Y-49189634D01*
X174835330Y-49504415D01*
X175321511Y-49829271D01*
X175895000Y-49943345D01*
X176468489Y-49829271D01*
X176954670Y-49504415D01*
X177165000Y-49189634D01*
X177375330Y-49504415D01*
X177861511Y-49829271D01*
X178435000Y-49943345D01*
X179008489Y-49829271D01*
X179494670Y-49504415D01*
X179705000Y-49189634D01*
X179915330Y-49504415D01*
X180401511Y-49829271D01*
X180975000Y-49943345D01*
X181548489Y-49829271D01*
X182034670Y-49504415D01*
X182245000Y-49189634D01*
X182455330Y-49504415D01*
X182941511Y-49829271D01*
X183515000Y-49943345D01*
X184088489Y-49829271D01*
X184574670Y-49504415D01*
X184589500Y-49482220D01*
X184653073Y-49635699D01*
X184831702Y-49814327D01*
X185065091Y-49911000D01*
X185769250Y-49911000D01*
X185928000Y-49752250D01*
X185928000Y-48387000D01*
X185908000Y-48387000D01*
X185908000Y-48133000D01*
X185928000Y-48133000D01*
X185928000Y-46767750D01*
X185769250Y-46609000D01*
X185065091Y-46609000D01*
X184831702Y-46705673D01*
X184653073Y-46884301D01*
X184589500Y-47037780D01*
X184574670Y-47015585D01*
X184088489Y-46690729D01*
X183515000Y-46576655D01*
X182941511Y-46690729D01*
X182455330Y-47015585D01*
X182245000Y-47330366D01*
X182034670Y-47015585D01*
X181548489Y-46690729D01*
X180975000Y-46576655D01*
X180401511Y-46690729D01*
X179915330Y-47015585D01*
X179705000Y-47330366D01*
X179494670Y-47015585D01*
X179008489Y-46690729D01*
X178435000Y-46576655D01*
X177861511Y-46690729D01*
X177375330Y-47015585D01*
X177165000Y-47330366D01*
X176954670Y-47015585D01*
X176468489Y-46690729D01*
X175895000Y-46576655D01*
X175321511Y-46690729D01*
X174835330Y-47015585D01*
X174625000Y-47330366D01*
X174414670Y-47015585D01*
X173928489Y-46690729D01*
X173355000Y-46576655D01*
X172781511Y-46690729D01*
X172295330Y-47015585D01*
X172085000Y-47330366D01*
X171874670Y-47015585D01*
X171388489Y-46690729D01*
X170815000Y-46576655D01*
X170241511Y-46690729D01*
X169755330Y-47015585D01*
X169545000Y-47330366D01*
X169334670Y-47015585D01*
X168848489Y-46690729D01*
X168275000Y-46576655D01*
X167701511Y-46690729D01*
X167215330Y-47015585D01*
X167005000Y-47330366D01*
X166794670Y-47015585D01*
X166308489Y-46690729D01*
X165735000Y-46576655D01*
X165161511Y-46690729D01*
X164675330Y-47015585D01*
X164465000Y-47330366D01*
X164254670Y-47015585D01*
X163768489Y-46690729D01*
X163195000Y-46576655D01*
X162621511Y-46690729D01*
X162135330Y-47015585D01*
X161925000Y-47330366D01*
X161714670Y-47015585D01*
X161228489Y-46690729D01*
X160655000Y-46576655D01*
X160081511Y-46690729D01*
X159595330Y-47015585D01*
X159385000Y-47330366D01*
X159174670Y-47015585D01*
X158688489Y-46690729D01*
X158115000Y-46576655D01*
X157541511Y-46690729D01*
X157055330Y-47015585D01*
X156845000Y-47330366D01*
X156634670Y-47015585D01*
X156148489Y-46690729D01*
X155575000Y-46576655D01*
X155001511Y-46690729D01*
X154515330Y-47015585D01*
X154305000Y-47330366D01*
X154094670Y-47015585D01*
X153608489Y-46690729D01*
X153035000Y-46576655D01*
X152461511Y-46690729D01*
X151975330Y-47015585D01*
X151650474Y-47501766D01*
X151536400Y-48075255D01*
X149317781Y-48075255D01*
X149225000Y-48056800D01*
X148712397Y-48056800D01*
X148564415Y-47835330D01*
X148542220Y-47820500D01*
X148695698Y-47756927D01*
X148874327Y-47578299D01*
X148971000Y-47344910D01*
X148971000Y-46640750D01*
X148812250Y-46482000D01*
X147447000Y-46482000D01*
X147447000Y-46502000D01*
X147193000Y-46502000D01*
X147193000Y-46482000D01*
X145827750Y-46482000D01*
X145669000Y-46640750D01*
X145669000Y-47344910D01*
X145765673Y-47578299D01*
X145944302Y-47756927D01*
X146097780Y-47820500D01*
X146075585Y-47835330D01*
X145750729Y-48321511D01*
X145636655Y-48895000D01*
X145750729Y-49468489D01*
X146075585Y-49954670D01*
X146390366Y-50165000D01*
X146075585Y-50375330D01*
X145750729Y-50861511D01*
X145636655Y-51435000D01*
X145750729Y-52008489D01*
X146075585Y-52494670D01*
X146390366Y-52705000D01*
X146075585Y-52915330D01*
X145750729Y-53401511D01*
X145636655Y-53975000D01*
X145750729Y-54548489D01*
X146075585Y-55034670D01*
X146390366Y-55245000D01*
X146075585Y-55455330D01*
X145750729Y-55941511D01*
X145636655Y-56515000D01*
X145750729Y-57088489D01*
X146075585Y-57574670D01*
X146086256Y-57581800D01*
X81915000Y-57581800D01*
X81594235Y-57645604D01*
X81322303Y-57827303D01*
X79417303Y-59732303D01*
X79235604Y-60004234D01*
X79180215Y-60282697D01*
X79171800Y-60325000D01*
X79171800Y-62002930D01*
X79160370Y-62002930D01*
X78925053Y-62047208D01*
X78737912Y-62167630D01*
X78571520Y-62053939D01*
X78319630Y-62002930D01*
X76620370Y-62002930D01*
X76385053Y-62047208D01*
X76197912Y-62167630D01*
X76031520Y-62053939D01*
X75779630Y-62002930D01*
X74080370Y-62002930D01*
X73845053Y-62047208D01*
X73657912Y-62167630D01*
X73491520Y-62053939D01*
X73239630Y-62002930D01*
X71540370Y-62002930D01*
X71305053Y-62047208D01*
X71117912Y-62167630D01*
X70951520Y-62053939D01*
X70699630Y-62002930D01*
X69000370Y-62002930D01*
X68765053Y-62047208D01*
X68655000Y-62118025D01*
X68655000Y-54244331D01*
X69007926Y-54597874D01*
X69553393Y-54824372D01*
X70144016Y-54824888D01*
X70689877Y-54599342D01*
X71107874Y-54182074D01*
X71119749Y-54153476D01*
X71130658Y-54179877D01*
X71547926Y-54597874D01*
X72093393Y-54824372D01*
X72684016Y-54824888D01*
X73229877Y-54599342D01*
X73647874Y-54182074D01*
X73659749Y-54153476D01*
X73670658Y-54179877D01*
X74087926Y-54597874D01*
X74633393Y-54824372D01*
X75224016Y-54824888D01*
X75769877Y-54599342D01*
X76187874Y-54182074D01*
X76199749Y-54153476D01*
X76210658Y-54179877D01*
X76627926Y-54597874D01*
X77173393Y-54824372D01*
X77764016Y-54824888D01*
X78309877Y-54599342D01*
X78727874Y-54182074D01*
X78739749Y-54153476D01*
X78750658Y-54179877D01*
X79167926Y-54597874D01*
X79713393Y-54824372D01*
X80304016Y-54824888D01*
X80849877Y-54599342D01*
X81267874Y-54182074D01*
X81279749Y-54153476D01*
X81290658Y-54179877D01*
X81707926Y-54597874D01*
X82253393Y-54824372D01*
X82844016Y-54824888D01*
X83389877Y-54599342D01*
X83807874Y-54182074D01*
X83819749Y-54153476D01*
X83830658Y-54179877D01*
X84247926Y-54597874D01*
X84793393Y-54824372D01*
X85384016Y-54824888D01*
X85929877Y-54599342D01*
X86347874Y-54182074D01*
X86359749Y-54153476D01*
X86370658Y-54179877D01*
X86787926Y-54597874D01*
X87333393Y-54824372D01*
X87924016Y-54824888D01*
X88469877Y-54599342D01*
X88887874Y-54182074D01*
X88899749Y-54153476D01*
X88910658Y-54179877D01*
X89327926Y-54597874D01*
X89873393Y-54824372D01*
X90464016Y-54824888D01*
X91009877Y-54599342D01*
X91427874Y-54182074D01*
X91439749Y-54153476D01*
X91450658Y-54179877D01*
X91867926Y-54597874D01*
X92413393Y-54824372D01*
X93004016Y-54824888D01*
X93549877Y-54599342D01*
X93967874Y-54182074D01*
X93979749Y-54153476D01*
X93990658Y-54179877D01*
X94407926Y-54597874D01*
X94953393Y-54824372D01*
X95544016Y-54824888D01*
X96089877Y-54599342D01*
X96507874Y-54182074D01*
X96519749Y-54153476D01*
X96530658Y-54179877D01*
X96947926Y-54597874D01*
X97493393Y-54824372D01*
X98084016Y-54824888D01*
X98629877Y-54599342D01*
X99047874Y-54182074D01*
X99059749Y-54153476D01*
X99070658Y-54179877D01*
X99487926Y-54597874D01*
X100033393Y-54824372D01*
X100624016Y-54824888D01*
X101169877Y-54599342D01*
X101587874Y-54182074D01*
X101599749Y-54153476D01*
X101610658Y-54179877D01*
X102027926Y-54597874D01*
X102573393Y-54824372D01*
X103164016Y-54824888D01*
X103709877Y-54599342D01*
X104127874Y-54182074D01*
X104139749Y-54153476D01*
X104150658Y-54179877D01*
X104567926Y-54597874D01*
X105113393Y-54824372D01*
X105704016Y-54824888D01*
X106249877Y-54599342D01*
X106667874Y-54182074D01*
X106679749Y-54153476D01*
X106690658Y-54179877D01*
X107107926Y-54597874D01*
X107653393Y-54824372D01*
X108244016Y-54824888D01*
X108789877Y-54599342D01*
X109207874Y-54182074D01*
X109219749Y-54153476D01*
X109230658Y-54179877D01*
X109647926Y-54597874D01*
X110193393Y-54824372D01*
X110784016Y-54824888D01*
X111329877Y-54599342D01*
X111747874Y-54182074D01*
X111759749Y-54153476D01*
X111770658Y-54179877D01*
X112187926Y-54597874D01*
X112733393Y-54824372D01*
X113324016Y-54824888D01*
X113869877Y-54599342D01*
X114287874Y-54182074D01*
X114299749Y-54153476D01*
X114310658Y-54179877D01*
X114727926Y-54597874D01*
X115273393Y-54824372D01*
X115864016Y-54824888D01*
X116409877Y-54599342D01*
X116827874Y-54182074D01*
X116839749Y-54153476D01*
X116850658Y-54179877D01*
X117267926Y-54597874D01*
X117813393Y-54824372D01*
X118404016Y-54824888D01*
X118949877Y-54599342D01*
X119367874Y-54182074D01*
X119379749Y-54153476D01*
X119390658Y-54179877D01*
X119807926Y-54597874D01*
X120353393Y-54824372D01*
X120944016Y-54824888D01*
X121489877Y-54599342D01*
X121907874Y-54182074D01*
X121919749Y-54153476D01*
X121930658Y-54179877D01*
X122347926Y-54597874D01*
X122893393Y-54824372D01*
X123484016Y-54824888D01*
X124029877Y-54599342D01*
X124447874Y-54182074D01*
X124459749Y-54153476D01*
X124470658Y-54179877D01*
X124887926Y-54597874D01*
X125433393Y-54824372D01*
X126024016Y-54824888D01*
X126569877Y-54599342D01*
X126987874Y-54182074D01*
X126999749Y-54153476D01*
X127010658Y-54179877D01*
X127427926Y-54597874D01*
X127973393Y-54824372D01*
X128564016Y-54824888D01*
X129109877Y-54599342D01*
X129527874Y-54182074D01*
X129539749Y-54153476D01*
X129550658Y-54179877D01*
X129967926Y-54597874D01*
X130513393Y-54824372D01*
X131104016Y-54824888D01*
X131649877Y-54599342D01*
X132067874Y-54182074D01*
X132079749Y-54153476D01*
X132090658Y-54179877D01*
X132507926Y-54597874D01*
X133053393Y-54824372D01*
X133644016Y-54824888D01*
X134189877Y-54599342D01*
X134607874Y-54182074D01*
X134619749Y-54153476D01*
X134630658Y-54179877D01*
X135047926Y-54597874D01*
X135593393Y-54824372D01*
X136184016Y-54824888D01*
X136729877Y-54599342D01*
X137147874Y-54182074D01*
X137159749Y-54153476D01*
X137170658Y-54179877D01*
X137587926Y-54597874D01*
X138133393Y-54824372D01*
X138724016Y-54824888D01*
X139269877Y-54599342D01*
X139687874Y-54182074D01*
X139699749Y-54153476D01*
X139710658Y-54179877D01*
X140127926Y-54597874D01*
X140673393Y-54824372D01*
X141264016Y-54824888D01*
X141809877Y-54599342D01*
X142227874Y-54182074D01*
X142239749Y-54153476D01*
X142250658Y-54179877D01*
X142667926Y-54597874D01*
X143213393Y-54824372D01*
X143804016Y-54824888D01*
X144349877Y-54599342D01*
X144767874Y-54182074D01*
X144994372Y-53636607D01*
X144994888Y-53045984D01*
X144769342Y-52500123D01*
X144399000Y-52129134D01*
X144399000Y-50733067D01*
X144569670Y-50619029D01*
X144894526Y-50132848D01*
X145008600Y-49559359D01*
X145008600Y-49500641D01*
X144894526Y-48927152D01*
X144569670Y-48440971D01*
X144298828Y-48260000D01*
X144569670Y-48079029D01*
X144894526Y-47592848D01*
X145008600Y-47019359D01*
X145008600Y-46960641D01*
X144894526Y-46387152D01*
X144569670Y-45900971D01*
X144399000Y-45786933D01*
X144399000Y-45365090D01*
X145669000Y-45365090D01*
X145669000Y-46069250D01*
X145827750Y-46228000D01*
X147193000Y-46228000D01*
X147193000Y-45015150D01*
X147447000Y-45015150D01*
X147447000Y-46228000D01*
X148812250Y-46228000D01*
X148971000Y-46069250D01*
X148971000Y-45365090D01*
X148874327Y-45131701D01*
X148695698Y-44953073D01*
X148462309Y-44856400D01*
X147605750Y-44856400D01*
X147447000Y-45015150D01*
X147193000Y-45015150D01*
X147034250Y-44856400D01*
X146177691Y-44856400D01*
X145944302Y-44953073D01*
X145765673Y-45131701D01*
X145669000Y-45365090D01*
X144399000Y-45365090D01*
X144399000Y-42987619D01*
X167309613Y-42987619D01*
X167649155Y-43809372D01*
X168277321Y-44438636D01*
X169098481Y-44779611D01*
X169987619Y-44780387D01*
X170809372Y-44440845D01*
X171438636Y-43812679D01*
X171779611Y-42991519D01*
X171779614Y-42987619D01*
X179374613Y-42987619D01*
X179714155Y-43809372D01*
X180342321Y-44438636D01*
X181163481Y-44779611D01*
X182052619Y-44780387D01*
X182874372Y-44440845D01*
X183503636Y-43812679D01*
X183844611Y-42991519D01*
X183845387Y-42102381D01*
X183505845Y-41280628D01*
X182877679Y-40651364D01*
X182056519Y-40310389D01*
X181167381Y-40309613D01*
X180345628Y-40649155D01*
X179716364Y-41277321D01*
X179375389Y-42098481D01*
X179374613Y-42987619D01*
X171779614Y-42987619D01*
X171780387Y-42102381D01*
X171440845Y-41280628D01*
X170812679Y-40651364D01*
X169991519Y-40310389D01*
X169102381Y-40309613D01*
X168280628Y-40649155D01*
X167651364Y-41277321D01*
X167310389Y-42098481D01*
X167309613Y-42987619D01*
X144399000Y-42987619D01*
X144399000Y-40025808D01*
X144435382Y-39989489D01*
X144602010Y-39588205D01*
X144602389Y-39153701D01*
X144460375Y-38810000D01*
X187250000Y-38810000D01*
X187250000Y-46693952D01*
M02*
