G04 #@! TF.FileFunction,Soldermask,Top*
%FSLAX46Y46*%
G04 Gerber Fmt 4.6, Leading zero omitted, Abs format (unit mm)*
G04 Created by KiCad (PCBNEW 4.0.2+e4-6225~38~ubuntu16.04.1-stable) date Thu 23 Jun 2016 09:21:40 PM CEST*
%MOMM*%
G01*
G04 APERTURE LIST*
%ADD10C,0.100000*%
%ADD11C,3.600000*%
%ADD12R,2.127200X2.432000*%
%ADD13O,2.127200X2.432000*%
%ADD14C,2.099260*%
%ADD15R,2.099260X2.099260*%
%ADD16R,2.432000X2.127200*%
%ADD17O,2.432000X2.127200*%
%ADD18R,2.127200X2.127200*%
%ADD19O,2.127200X2.127200*%
G04 APERTURE END LIST*
D10*
D11*
X169545000Y-42545000D03*
D12*
X186055000Y-48260000D03*
D13*
X183515000Y-48260000D03*
X180975000Y-48260000D03*
X178435000Y-48260000D03*
X175895000Y-48260000D03*
X173355000Y-48260000D03*
X170815000Y-48260000D03*
X168275000Y-48260000D03*
X165735000Y-48260000D03*
X163195000Y-48260000D03*
X160655000Y-48260000D03*
X158115000Y-48260000D03*
X155575000Y-48260000D03*
X153035000Y-48260000D03*
D14*
X69850000Y-53340000D03*
D15*
X69850000Y-63500000D03*
D14*
X72390000Y-53340000D03*
D15*
X72390000Y-63500000D03*
D14*
X74930000Y-53340000D03*
D15*
X74930000Y-63500000D03*
D14*
X77470000Y-53340000D03*
D15*
X77470000Y-63500000D03*
D14*
X80010000Y-53340000D03*
D15*
X80010000Y-63500000D03*
D14*
X82550000Y-53340000D03*
D15*
X82550000Y-63500000D03*
D14*
X85090000Y-53340000D03*
D15*
X85090000Y-63500000D03*
D14*
X87630000Y-53340000D03*
D15*
X87630000Y-63500000D03*
D14*
X90170000Y-53340000D03*
D15*
X90170000Y-63500000D03*
D14*
X92710000Y-53340000D03*
D15*
X92710000Y-63500000D03*
D14*
X95250000Y-53340000D03*
D15*
X95250000Y-63500000D03*
D14*
X97790000Y-53340000D03*
D15*
X97790000Y-63500000D03*
D14*
X100330000Y-53340000D03*
D15*
X100330000Y-63500000D03*
D14*
X102870000Y-53340000D03*
D15*
X102870000Y-63500000D03*
D14*
X105410000Y-53340000D03*
D15*
X105410000Y-63500000D03*
D14*
X107950000Y-53340000D03*
D15*
X107950000Y-63500000D03*
D14*
X110490000Y-53340000D03*
D15*
X110490000Y-63500000D03*
D14*
X113030000Y-53340000D03*
D15*
X113030000Y-63500000D03*
D14*
X115570000Y-53340000D03*
D15*
X115570000Y-63500000D03*
D14*
X118110000Y-53340000D03*
D15*
X118110000Y-63500000D03*
D14*
X120650000Y-53340000D03*
D15*
X120650000Y-63500000D03*
D14*
X123190000Y-53340000D03*
D15*
X123190000Y-63500000D03*
D14*
X125730000Y-53340000D03*
D15*
X125730000Y-63500000D03*
D14*
X128270000Y-53340000D03*
D15*
X128270000Y-63500000D03*
D14*
X130810000Y-53340000D03*
D15*
X130810000Y-63500000D03*
D14*
X133350000Y-53340000D03*
D15*
X133350000Y-63500000D03*
D14*
X135890000Y-53340000D03*
D15*
X135890000Y-63500000D03*
D14*
X138430000Y-53340000D03*
D15*
X138430000Y-63500000D03*
D14*
X140970000Y-53340000D03*
D15*
X140970000Y-63500000D03*
D14*
X143510000Y-53340000D03*
D15*
X143510000Y-63500000D03*
D12*
X186055000Y-63500000D03*
D13*
X183515000Y-63500000D03*
X180975000Y-63500000D03*
X178435000Y-63500000D03*
X175895000Y-63500000D03*
X173355000Y-63500000D03*
X170815000Y-63500000D03*
X168275000Y-63500000D03*
X165735000Y-63500000D03*
X163195000Y-63500000D03*
X160655000Y-63500000D03*
X158115000Y-63500000D03*
X155575000Y-63500000D03*
X153035000Y-63500000D03*
D16*
X147320000Y-46355000D03*
D17*
X147320000Y-48895000D03*
X147320000Y-51435000D03*
X147320000Y-53975000D03*
X147320000Y-56515000D03*
D18*
X69850000Y-49530000D03*
D19*
X69850000Y-46990000D03*
X72390000Y-49530000D03*
X72390000Y-46990000D03*
X74930000Y-49530000D03*
X74930000Y-46990000D03*
X77470000Y-49530000D03*
X77470000Y-46990000D03*
X80010000Y-49530000D03*
X80010000Y-46990000D03*
X82550000Y-49530000D03*
X82550000Y-46990000D03*
X85090000Y-49530000D03*
X85090000Y-46990000D03*
X87630000Y-49530000D03*
X87630000Y-46990000D03*
X90170000Y-49530000D03*
X90170000Y-46990000D03*
X92710000Y-49530000D03*
X92710000Y-46990000D03*
X95250000Y-49530000D03*
X95250000Y-46990000D03*
X97790000Y-49530000D03*
X97790000Y-46990000D03*
X100330000Y-49530000D03*
X100330000Y-46990000D03*
X102870000Y-49530000D03*
X102870000Y-46990000D03*
X105410000Y-49530000D03*
X105410000Y-46990000D03*
X107950000Y-49530000D03*
X107950000Y-46990000D03*
X110490000Y-49530000D03*
X110490000Y-46990000D03*
X113030000Y-49530000D03*
X113030000Y-46990000D03*
X115570000Y-49530000D03*
X115570000Y-46990000D03*
X118110000Y-49530000D03*
X118110000Y-46990000D03*
X120650000Y-49530000D03*
X120650000Y-46990000D03*
X123190000Y-49530000D03*
X123190000Y-46990000D03*
X125730000Y-49530000D03*
X125730000Y-46990000D03*
X128270000Y-49530000D03*
X128270000Y-46990000D03*
X130810000Y-49530000D03*
X130810000Y-46990000D03*
X133350000Y-49530000D03*
X133350000Y-46990000D03*
X135890000Y-49530000D03*
X135890000Y-46990000D03*
X138430000Y-49530000D03*
X138430000Y-46990000D03*
X140970000Y-49530000D03*
X140970000Y-46990000D03*
X143510000Y-49530000D03*
X143510000Y-46990000D03*
D11*
X181610000Y-42545000D03*
M02*
