M48
;DRILL file {KiCad 4.0.2+e4-6225~38~ubuntu16.04.1-stable} date Thu 23 Jun 2016 09:21:59 PM CEST
;FORMAT={2:4/ absolute / inch / suppress leading zeros}
FMAT,2
INCH,TZ
T1C0.020
T2C0.028
T3C0.040
T4C0.126
%
G90
G05
M72
T1
X27500Y-17500
X28500Y-17000
X29500Y-16500
X30500Y-16000
X31500Y-15500
X32500Y-17500
X33500Y-17000
X34500Y-16500
X35500Y-16000
X36500Y-15500
X37500Y-17500
X38500Y-17000
X39500Y-16500
X40500Y-16000
X41500Y-15500
X42500Y-17500
X43500Y-17000
X44500Y-16500
X45500Y-16000
X46500Y-15500
X47500Y-17500
X48500Y-17000
X49500Y-16500
X50500Y-16000
X51500Y-15500
X52500Y-17500
X53500Y-17000
X54500Y-16500
X55500Y-16000
X56500Y-15500
T2
X27500Y-21000
X27500Y-25000
X28500Y-21000
X28500Y-25000
X29500Y-21000
X29500Y-25000
X30500Y-21000
X30500Y-25000
X31500Y-21000
X31500Y-25000
X32500Y-21000
X32500Y-25000
X33500Y-21000
X33500Y-25000
X34500Y-21000
X34500Y-25000
X35500Y-21000
X35500Y-25000
X36500Y-21000
X36500Y-25000
X37500Y-21000
X37500Y-25000
X38500Y-21000
X38500Y-25000
X39500Y-21000
X39500Y-25000
X40500Y-21000
X40500Y-25000
X41500Y-21000
X41500Y-25000
X42500Y-21000
X42500Y-25000
X43500Y-21000
X43500Y-25000
X44500Y-21000
X44500Y-25000
X45500Y-21000
X45500Y-25000
X46500Y-21000
X46500Y-25000
X47500Y-21000
X47500Y-25000
X48500Y-21000
X48500Y-25000
X49500Y-21000
X49500Y-25000
X50500Y-21000
X50500Y-25000
X51500Y-21000
X51500Y-25000
X52500Y-21000
X52500Y-25000
X53500Y-21000
X53500Y-25000
X54500Y-21000
X54500Y-25000
X55500Y-21000
X55500Y-25000
X56500Y-21000
X56500Y-25000
T3
X27500Y-18500
X27500Y-19500
X28500Y-18500
X28500Y-19500
X29500Y-18500
X29500Y-19500
X30500Y-18500
X30500Y-19500
X31500Y-18500
X31500Y-19500
X32500Y-18500
X32500Y-19500
X33500Y-18500
X33500Y-19500
X34500Y-18500
X34500Y-19500
X35500Y-18500
X35500Y-19500
X36500Y-18500
X36500Y-19500
X37500Y-18500
X37500Y-19500
X38500Y-18500
X38500Y-19500
X39500Y-18500
X39500Y-19500
X40500Y-18500
X40500Y-19500
X41500Y-18500
X41500Y-19500
X42500Y-18500
X42500Y-19500
X43500Y-18500
X43500Y-19500
X44500Y-18500
X44500Y-19500
X45500Y-18500
X45500Y-19500
X46500Y-18500
X46500Y-19500
X47500Y-18500
X47500Y-19500
X48500Y-18500
X48500Y-19500
X49500Y-18500
X49500Y-19500
X50500Y-18500
X50500Y-19500
X51500Y-18500
X51500Y-19500
X52500Y-18500
X52500Y-19500
X53500Y-18500
X53500Y-19500
X54500Y-18500
X54500Y-19500
X55500Y-18500
X55500Y-19500
X56500Y-18500
X56500Y-19500
X58000Y-18250
X58000Y-19250
X58000Y-20250
X58000Y-21250
X58000Y-22250
X60250Y-19000
X60250Y-25000
X61250Y-19000
X61250Y-25000
X62250Y-19000
X62250Y-25000
X63250Y-19000
X63250Y-25000
X64250Y-19000
X64250Y-25000
X65250Y-19000
X65250Y-25000
X66250Y-19000
X66250Y-25000
X67250Y-19000
X67250Y-25000
X68250Y-19000
X68250Y-25000
X69250Y-19000
X69250Y-25000
X70250Y-19000
X70250Y-25000
X71250Y-19000
X71250Y-25000
X72250Y-19000
X72250Y-25000
X73250Y-19000
X73250Y-25000
T4
X66750Y-16750
X71500Y-16750
T0
M30
